<?xml version="1.0" encoding="iso-8859-1"?>
<!-- Generator: Adobe Illustrator 21.0.0, SVG Export Plug-In . SVG Version: 6.00 Build 0)  -->
<svg xmlns="http://www.w3.org/2000/svg" xmlns:xlink="http://www.w3.org/1999/xlink" version="1.1" id="Capa_1" x="0px" y="0px" viewBox="0 0 512 512" style="enable-background:new 0 0 512 512;" xml:space="preserve" width="512" height="512">
<g>
	<circle style="fill:#67BD00;" cx="256" cy="256" r="256"/>
	<path style="fill:#009100;" d="M496.723,343.291c-50.435-50.437-104.929-104.931-105.11-105.107   c-5.094-5.316-18.601-11.196-18.601-11.196l-117-117c0,0-63.82,124.283-60.344,132.288l-74.06,53.34   c0,0,23.225,23.229,23.338,23.344l-23.377,71.679l121.012,121.012C247.025,511.881,251.499,512,256,512   C366.73,512,461.032,441.695,496.723,343.291z"/>
	<g>
		<path style="fill:#715539;" d="M140.182,339.952l-7.032-15.714l212.472-95.066c20.466-9.159,44.567,0.041,53.73,20.514    c1.047,2.343,1.87,4.768,2.439,7.182c4.539,18.981-5.115,38.553-22.957,46.54l-119.326,53.391L171.9,395.993l-3.516-7.859    l-27.459-48.515L140.182,339.952z"/>
		<path style="fill:#A17852;" d="M371.818,339.952l7.032-15.714l-212.472-95.066c-20.466-9.159-44.567,0.041-53.73,20.514    c-1.047,2.343-1.87,4.768-2.439,7.182c-4.539,18.981,5.115,38.553,22.957,46.54l119.326,53.391l87.608,39.195l3.516-7.859    l27.459-48.515L371.818,339.952z"/>
		<path style="fill:#C8AD92;" d="M378.85,324.235c-9.915-4.437-20.964-4.746-31.111-0.872    c-10.148,3.874-18.179,11.468-22.615,21.383c-9.158,20.467,0.043,44.569,20.511,53.727c5.378,2.406,11.006,3.545,16.549,3.545    c15.552,0,30.427-8.966,37.178-24.056C408.518,357.494,399.317,333.393,378.85,324.235z"/>
		<path style="fill:#B38A65;" d="M133.15,324.235c9.915-4.437,20.964-4.746,31.111-0.872c10.148,3.874,18.179,11.468,22.615,21.383    c9.158,20.467-0.043,44.569-20.511,53.727c-5.378,2.406-11.006,3.545-16.549,3.545c-15.552,0-30.427-8.966-37.178-24.056    C103.482,357.494,112.683,333.393,133.15,324.235z"/>
		<path style="fill:#FFA92F;" d="M321.76,216.181c0,36.251-29.491,65.742-65.747,65.747h-0.006    c-36.257,0-65.753-29.496-65.753-65.747c0-14.966,10.18-36.388,30.248-63.687c14.404-19.592,28.584-35.006,29.175-35.654    l6.33-6.858l0.006,0.006l6.324,6.852c0.591,0.648,14.771,16.062,29.175,35.654C311.579,179.793,321.76,201.215,321.76,216.181z"/>
		<path style="fill:#FF4F19;" d="M293.187,244.748c0,20.504-16.676,37.175-37.175,37.18h-0.006c-20.498,0-37.18-16.676-37.18-37.18    c0-8.533,5.222-19.781,15.959-34.391c7.34-9.985,14.588-17.864,14.892-18.197l6.33-6.858l0.006,0.006l6.324,6.852    c0.304,0.333,7.552,8.212,14.892,18.197C287.965,224.967,293.187,236.215,293.187,244.748z"/>
		<path style="fill:#FF8A1D;" d="M321.76,216.181c0,36.251-29.491,65.742-65.747,65.747v-171.94l6.324,6.852    c0.591,0.648,14.771,16.062,29.175,35.654C311.579,179.793,321.76,201.215,321.76,216.181z"/>
		<path style="fill:#FF0C2F;" d="M293.187,244.748c0,20.504-16.676,37.175-37.175,37.18v-96.621l6.324,6.852    c0.304,0.333,7.552,8.212,14.892,18.197C287.965,224.967,293.187,236.215,293.187,244.748z"/>
	</g>
</g>















</svg>
