<svg xmlns="http://www.w3.org/2000/svg" xmlns:xlink="http://www.w3.org/1999/xlink" xmlns:fi="http://pattern.flaticon.com/" x="0" y="0" width="700" height="350" viewBox="0 0 700 350"><rect x="0px" y="0px" width="100%" height="100%" opacity="1" fill="#68ff9d"/><defs><g transform="matrix(0.1697916491523753 0.04549553527192747 -0.04549553527192747 0.1697916491523753 -31.819805153394643 -55.11351921262151)" id="L1_51"><circle cx="256" cy="256" r="112" fill="#ffcf00"/><path d="M256,72c4.422,0,8-3.582,8-8V8c0-4.418-3.578-8-8-8s-8,3.582-8,8v56C248,68.418,251.578,72,256,72z" fill="#ffcf00"/><path d="M256,120c4.422,0,8-3.582,8-8V96c0-4.418-3.578-8-8-8s-8,3.582-8,8v16   C248,116.418,251.578,120,256,120z" fill="#ffcf00"/><path d="M256,440c-4.422,0-8,3.578-8,8v56c0,4.422,3.578,8,8,8s8-3.578,8-8v-56   C264,443.578,260.422,440,256,440z" fill="#ffcf00"/><path d="M256,392c-4.422,0-8,3.578-8,8v16c0,4.422,3.578,8,8,8s8-3.578,8-8v-16   C264,395.578,260.422,392,256,392z" fill="#ffcf00"/><path d="M504,248h-56c-4.422,0-8,3.578-8,8s3.578,8,8,8h56c4.422,0,8-3.578,8-8S508.422,248,504,248z" fill="#ffcf00"/><path d="M400,248c-4.422,0-8,3.578-8,8s3.578,8,8,8h16c4.422,0,8-3.578,8-8s-3.578-8-8-8H400z" fill="#ffcf00"/><path d="M72,256c0-4.422-3.578-8-8-8H8c-4.422,0-8,3.578-8,8s3.578,8,8,8h56C68.422,264,72,260.422,72,256z" fill="#ffcf00"/><path d="M112,248H96c-4.422,0-8,3.578-8,8s3.578,8,8,8h16c4.422,0,8-3.578,8-8S116.422,248,112,248z" fill="#ffcf00"/><path d="M148.523,352.164l-66.18,66.18c-3.125,3.125-3.125,8.188,0,11.313C83.906,431.219,85.953,432,88,432   s4.094-0.781,5.656-2.344l66.18-66.18c3.125-3.125,3.125-8.188,0-11.313S151.648,349.039,148.523,352.164z" fill="#ff9300"/><path d="M357.82,162.176c2.047,0,4.094-0.781,5.656-2.344l66.18-66.176c3.125-3.125,3.125-8.188,0-11.313   s-8.187-3.125-11.312,0l-66.18,66.176c-3.125,3.125-3.125,8.188,0,11.313C353.726,161.395,355.773,162.176,357.82,162.176z" fill="#ff9300"/><path d="M193.5,126.023c1.273,3.078,4.258,4.941,7.391,4.941c1.023,0,2.063-0.199,3.063-0.613   c4.078-1.691,6.016-6.371,4.328-10.453L183.789,60.77c-1.688-4.082-6.383-6-10.453-4.328c-4.078,1.691-6.016,6.371-4.328,10.453   L193.5,126.023z" fill="#ff7400"/><path d="M318.5,385.976c-1.695-4.078-6.383-6-10.453-4.328c-4.078,1.688-6.016,6.367-4.328,10.453   l24.492,59.125c1.273,3.078,4.258,4.938,7.391,4.938c1.023,0,2.063-0.195,3.063-0.609c4.078-1.688,6.016-6.367,4.328-10.453   L318.5,385.976z" fill="#ff7400"/><path d="M363.476,352.164c-3.125-3.125-8.188-3.125-11.313,0s-3.125,8.188,0,11.313l66.18,66.18   c1.563,1.563,3.609,2.344,5.656,2.344c2.047,0,4.094-0.781,5.656-2.344c3.125-3.125,3.125-8.188,0-11.313L363.476,352.164z" fill="#ff9300"/><path d="M148.523,159.832c1.563,1.563,3.609,2.344,5.656,2.344s4.094-0.781,5.656-2.344   c3.125-3.125,3.125-8.188,0-11.313l-66.18-66.176c-3.125-3.125-8.188-3.125-11.313,0s-3.125,8.188,0,11.313L148.523,159.832z" fill="#ff9300"/><path d="M308.047,130.352c1,0.414,2.039,0.613,3.063,0.613c3.133,0,6.117-1.863,7.391-4.941l24.492-59.129   c1.688-4.082-0.25-8.762-4.328-10.453c-4.055-1.676-8.766,0.242-10.453,4.328l-24.492,59.129   C302.031,123.98,303.969,128.66,308.047,130.352z" fill="#ff7400"/><path d="M203.953,381.648c-4.055-1.68-8.766,0.242-10.453,4.328l-24.492,59.125   c-1.688,4.086,0.25,8.766,4.328,10.453c1,0.414,2.039,0.609,3.063,0.609c3.133,0,6.117-1.859,7.391-4.938l24.492-59.125   C209.969,388.015,208.031,383.336,203.953,381.648z" fill="#ff7400"/><path d="M130.352,308.047c-1.688-4.086-6.391-6.016-10.453-4.328l-59.125,24.492   c-4.078,1.688-6.016,6.367-4.328,10.453c1.273,3.078,4.258,4.938,7.391,4.938c1.023,0,2.063-0.195,3.063-0.609l59.125-24.492   C130.102,316.812,132.039,312.133,130.352,308.047z" fill="#ff7400"/><path d="M381.648,203.953c1.273,3.078,4.258,4.938,7.391,4.938c1.023,0,2.063-0.195,3.063-0.609   l59.125-24.492c4.078-1.688,6.016-6.367,4.328-10.453c-1.688-4.078-6.391-6-10.453-4.328L385.976,193.5   C381.898,195.187,379.961,199.867,381.648,203.953z" fill="#ff7400"/><path d="M60.773,183.789l59.125,24.492c1,0.414,2.039,0.609,3.063,0.609c3.133,0,6.117-1.859,7.391-4.938   c1.688-4.086-0.25-8.766-4.328-10.453l-59.125-24.492c-4.063-1.676-8.766,0.25-10.453,4.328   C54.758,177.422,56.695,182.102,60.773,183.789z" fill="#ff7400"/><path d="M451.226,328.211l-59.125-24.492c-4.063-1.688-8.766,0.242-10.453,4.328s0.25,8.766,4.328,10.453   l59.125,24.492c1,0.414,2.039,0.609,3.063,0.609c3.133,0,6.117-1.859,7.391-4.938C457.242,334.578,455.304,329.898,451.226,328.211   z" fill="#ff7400"/></g><g transform="matrix(0.09765625 0 0 0.09765625 62.5 237.5)" id="L1_52"><path d="M343.495,285.792c14.366-9.953,27.601-19.937,39.64-29.792c-12.039-9.855-25.274-19.839-39.64-29.792   C343.827,235.848,344,245.778,344,256S343.827,276.151,343.495,285.792z" fill="none"/><path d="M209.617,424.041c0.199,0.01,0.396,0.03,0.595,0.044c0.333,0.023,0.667,0.043,0.998,0.076   c0.251,0.025,0.499,0.061,0.748,0.092c0.272,0.034,0.546,0.063,0.817,0.104c0.281,0.042,0.557,0.095,0.835,0.144   c0.235,0.042,0.47,0.079,0.703,0.126c0.301,0.06,0.599,0.131,0.897,0.2c0.203,0.047,0.408,0.09,0.61,0.141   c0.321,0.081,0.637,0.171,0.954,0.261c0.174,0.049,0.348,0.095,0.521,0.148c0.336,0.102,0.667,0.213,0.999,0.326   c0.148,0.05,0.297,0.098,0.443,0.15c0.35,0.125,0.696,0.259,1.041,0.395c0.121,0.048,0.244,0.094,0.364,0.144   c0.362,0.148,0.719,0.306,1.074,0.467c0.099,0.045,0.198,0.088,0.297,0.134c0.371,0.173,0.737,0.355,1.101,0.542   c0.077,0.04,0.154,0.078,0.231,0.118c0.379,0.199,0.752,0.406,1.122,0.619c0.057,0.033,0.115,0.065,0.171,0.099   c0.384,0.224,0.761,0.457,1.135,0.697c0.04,0.026,0.08,0.051,0.119,0.076c0.385,0.25,0.764,0.508,1.137,0.773   c0.026,0.019,0.052,0.037,0.079,0.056c0.383,0.274,0.76,0.557,1.13,0.848c0.014,0.011,0.028,0.022,0.043,0.034   c0.379,0.299,0.751,0.605,1.116,0.92c0.005,0.004,0.01,0.009,0.015,0.013C235.698,437.655,240,446.322,240,456   c0,8.855-3.598,16.87-9.411,22.664C238.874,489.933,247.556,496,256,496c22.539,0,46.779-43.186,60.597-113.392   c-18.895-7.104-39.146-15.954-60.597-26.678c-21.452,10.724-41.702,19.574-60.598,26.678c2.98,15.139,6.443,29.022,10.27,41.486   c0.77-0.055,1.544-0.093,2.327-0.093C208.542,424,209.081,424.014,209.617,424.041z" fill="none"/><path d="M300,179.79c8.853,5.111,17.365,10.226,25.548,15.333c-1.437-17.417-3.466-33.872-5.981-49.225   c-14.553,5.498-29.818,11.969-45.621,19.433C282.461,169.864,291.147,174.679,300,179.79z" fill="none"/><path d="M256,337.874c11.775-5.976,23.795-12.474,36-19.521c12.204-7.046,23.842-14.207,34.905-21.417   C327.617,283.751,328,270.092,328,256c0-14.093-0.383-27.751-1.094-40.937c-11.063-7.21-22.701-14.37-34.905-21.417   c-12.205-7.046-24.225-13.544-36-19.521c-11.776,5.977-23.796,12.475-36,19.521c-12.205,7.046-23.842,14.207-34.906,21.417   C184.382,228.249,184,241.907,184,256c0,14.093,0.382,27.751,1.094,40.937c11.063,7.21,22.701,14.37,34.906,21.417   C232.204,325.4,244.224,331.898,256,337.874z M256,208c26.51,0,48,21.49,48,48s-21.49,48-48,48c-26.51,0-48-21.49-48-48   S229.49,208,256,208z" fill="none"/><path d="M392,152c-5.908,0-11.438-1.608-16.188-4.4c-0.005-0.003-0.01-0.006-0.016-0.009   c-0.383-0.225-0.76-0.459-1.132-0.7c-0.041-0.026-0.082-0.052-0.123-0.079c-0.349-0.228-0.693-0.463-1.032-0.704   c-0.061-0.043-0.122-0.086-0.182-0.129c-0.323-0.233-0.642-0.471-0.956-0.716c-0.073-0.056-0.145-0.113-0.217-0.17   c-0.302-0.24-0.601-0.484-0.894-0.734c-0.078-0.066-0.155-0.134-0.232-0.201c-0.286-0.248-0.568-0.5-0.845-0.758   c-0.078-0.073-0.154-0.147-0.232-0.221c-0.273-0.259-0.542-0.521-0.806-0.79c-0.073-0.075-0.144-0.152-0.217-0.227   c-0.264-0.274-0.525-0.551-0.779-0.834c-0.057-0.063-0.111-0.13-0.168-0.194c-0.266-0.302-0.529-0.605-0.783-0.916   c-0.002-0.003-0.005-0.006-0.007-0.009c-0.823-1.009-1.581-2.071-2.278-3.176c-0.069-0.109-0.141-0.216-0.209-0.326   c-0.156-0.254-0.302-0.513-0.451-0.771c-0.1-0.174-0.203-0.347-0.3-0.523c-0.131-0.238-0.255-0.481-0.381-0.723   c-0.105-0.203-0.211-0.405-0.312-0.61c-0.114-0.232-0.221-0.466-0.33-0.701c-0.102-0.222-0.205-0.443-0.302-0.668   c-0.1-0.23-0.194-0.462-0.289-0.694c-0.014-0.034-0.028-0.067-0.042-0.101c-8.603,2.342-17.604,5.106-26.953,8.3   c3.295,19.916,5.756,41.878,7.195,65.818c20.013,13.216,37.803,26.328,53.403,39.14c53.891-47.07,79.171-89.655,67.902-109.175   c-5.363-9.289-19.394-14.019-39.919-13.937C422.862,138.774,408.979,152,392,152z" fill="none"/><path d="M65.617,168.041c0.2,0.01,0.396,0.03,0.595,0.044c0.333,0.023,0.667,0.043,0.997,0.076   c0.251,0.025,0.499,0.061,0.748,0.092c0.272,0.034,0.546,0.063,0.817,0.104c0.28,0.042,0.557,0.095,0.835,0.144   c0.234,0.042,0.47,0.079,0.703,0.126c0.301,0.06,0.599,0.131,0.897,0.2c0.203,0.047,0.408,0.09,0.61,0.141   c0.32,0.08,0.635,0.171,0.951,0.26c0.175,0.05,0.351,0.096,0.525,0.149c0.336,0.102,0.667,0.213,0.998,0.326   c0.147,0.05,0.296,0.098,0.443,0.15c0.349,0.124,0.693,0.258,1.037,0.394c0.123,0.049,0.248,0.095,0.37,0.146   c0.362,0.149,0.719,0.306,1.073,0.467c0.098,0.045,0.197,0.088,0.294,0.133c0.371,0.173,0.737,0.355,1.1,0.542   c0.078,0.04,0.156,0.079,0.233,0.12c0.377,0.198,0.75,0.405,1.118,0.617c0.059,0.034,0.117,0.067,0.176,0.101   c0.382,0.224,0.759,0.456,1.131,0.695c0.041,0.026,0.082,0.052,0.123,0.079c0.384,0.249,0.762,0.507,1.134,0.772   c0.027,0.019,0.053,0.038,0.08,0.057c0.383,0.274,0.759,0.556,1.129,0.847c0.015,0.012,0.03,0.023,0.044,0.035   c0.379,0.298,0.75,0.604,1.115,0.919c0.006,0.005,0.011,0.01,0.017,0.015c0.371,0.321,0.734,0.649,1.09,0.986l0,0l0,0   c6.155,5.832,10,14.077,10,23.226c0,7.434-2.542,14.27-6.795,19.703c7.944,8.261,16.909,16.79,26.85,25.473   c15.6-12.812,33.39-25.924,53.403-39.14c1.439-23.939,3.899-45.902,7.195-65.818C108.944,117.081,59.424,116.48,48.154,136   c-4.611,7.987-3.093,19.841,3.989,34.279C55.811,168.814,59.809,168,64,168C64.542,168,65.081,168.014,65.617,168.041z" fill="none"/><path d="M316.597,129.392C302.779,59.186,278.539,16,256,16c-22.54,0-46.779,43.186-60.598,113.392   c18.895,7.104,39.146,15.954,60.598,26.678C277.452,145.347,297.702,136.496,316.597,129.392z" fill="none"/><path d="M168,256c0-10.222,0.173-20.151,0.505-29.792c-14.365,9.953-27.601,19.937-39.64,29.792   c12.039,9.855,25.274,19.839,39.64,29.792C168.173,276.151,168,266.222,168,256z" fill="none"/><path d="M238.053,165.331c-15.802-7.464-31.067-13.935-45.621-19.433c-2.515,15.353-4.544,31.808-5.981,49.225   c8.183-5.107,16.696-10.222,25.548-15.333C220.853,174.679,229.538,169.864,238.053,165.331z" fill="none"/><path d="M395.944,266.825c-15.6,12.812-33.39,25.924-53.403,39.14c-1.439,23.939-3.899,45.902-7.195,65.818   c67.709,23.136,117.229,23.737,128.499,4.217C475.116,356.48,449.835,313.895,395.944,266.825z" fill="none"/><path d="M186.452,316.877c1.437,17.417,3.466,33.872,5.981,49.225c14.553-5.498,29.818-11.969,45.62-19.433   c-8.514-4.533-17.2-9.348-26.053-14.459C203.147,327.099,194.635,321.984,186.452,316.877z" fill="none"/><path d="M300,332.21c-8.853,5.111-17.539,9.926-26.053,14.459c15.802,7.464,31.067,13.935,45.621,19.433   c2.515-15.353,4.544-31.808,5.981-49.225C317.365,321.984,308.853,327.099,300,332.21z" fill="none"/><path d="M116.056,266.825C62.165,313.895,36.884,356.48,48.154,376c11.27,19.52,60.79,18.919,128.499-4.217   c-3.296-19.916-5.756-41.878-7.195-65.818C149.445,292.749,131.655,279.637,116.056,266.825z" fill="none"/><path d="M408.689,256c62.099-54.576,83.729-102.512,69.014-128c-8.123-14.07-27.717-21.96-56.806-21.759   C422.884,110.409,424,115.074,424,120c0,0.694-0.03,1.38-0.073,2.063c20.525-0.083,34.556,4.647,39.919,13.937   c11.27,19.52-14.011,62.105-67.902,109.175c-15.6-12.812-33.39-25.924-53.403-39.14c-1.439-23.939-3.899-45.902-7.195-65.818   c9.35-3.195,18.35-5.959,26.953-8.3c-0.081-0.202-0.16-0.404-0.237-0.608c-0.087-0.229-0.17-0.46-0.251-0.691   c-0.087-0.247-0.171-0.495-0.252-0.745c-0.074-0.229-0.146-0.458-0.215-0.689c-0.077-0.259-0.151-0.519-0.221-0.78   c-0.062-0.228-0.123-0.455-0.18-0.685c-0.067-0.271-0.129-0.545-0.189-0.819c-0.05-0.225-0.1-0.449-0.144-0.675   c-0.057-0.286-0.105-0.574-0.154-0.863c-0.037-0.219-0.076-0.438-0.109-0.658c-0.045-0.306-0.081-0.615-0.117-0.924   c-0.024-0.207-0.053-0.413-0.073-0.622c-0.034-0.345-0.057-0.694-0.079-1.042c-0.011-0.176-0.028-0.349-0.037-0.526   c-0.026-0.526-0.04-1.056-0.04-1.589c0-1.585,0.12-3.142,0.342-4.665c-8.917,2.336-18.254,5.136-27.998,8.432   C316.13,42.7,285.43,0,256,0c-29.431,0-60.13,42.7-76.344,123.768C101.342,97.276,49.013,102.512,34.297,128   c-7.198,12.468-5.687,30.312,4.989,51.672c3.398-4.126,7.813-7.379,12.857-9.393c-7.082-14.437-8.6-26.292-3.989-34.279   c11.27-19.52,60.79-18.919,128.499,4.217c-3.296,19.916-5.756,41.878-7.195,65.818c-20.013,13.216-37.803,26.328-53.403,39.14   c-9.941-8.683-18.907-17.212-26.85-25.473c-3.442,4.397-8.005,7.868-13.263,9.985c8.041,8.544,17.159,17.338,27.369,26.312   c-62.099,54.576-83.729,102.512-69.014,128c14.715,25.488,67.044,30.724,145.358,4.232c3.016,15.081,6.532,28.838,10.45,41.235   c4.504-3.043,9.827-4.961,15.567-5.374c-3.828-12.463-7.291-26.347-10.27-41.486c18.895-7.104,39.146-15.954,60.598-26.678   c21.452,10.724,41.702,19.574,60.597,26.678C302.779,452.814,278.539,496,256,496c-8.444,0-17.126-6.066-25.411-17.336   c-3.711,3.699-8.328,6.486-13.486,8.015C229.38,503.423,242.817,512,256,512c29.43,0,60.13-42.7,76.344-123.768   c78.313,26.491,130.643,21.255,145.358-4.232C492.418,358.512,470.788,310.576,408.689,256z M383.135,256   c-12.039,9.855-25.274,19.839-39.64,29.792C343.827,276.151,344,266.222,344,256s-0.173-20.151-0.505-29.792   C357.861,236.161,371.096,246.145,383.135,256z M184,256c0-14.093,0.382-27.751,1.094-40.937   c11.063-7.21,22.701-14.37,34.906-21.417c12.204-7.046,24.224-13.544,36-19.521c11.775,5.977,23.795,12.475,36,19.521   c12.204,7.046,23.842,14.207,34.905,21.417C327.617,228.249,328,241.907,328,256c0,14.093-0.383,27.751-1.094,40.937   c-11.063,7.21-22.701,14.37-34.905,21.417c-12.205,7.046-24.225,13.544-36,19.521c-11.776-5.976-23.796-12.474-36-19.521   c-12.205-7.046-23.842-14.207-34.906-21.417C184.382,283.751,184,270.092,184,256z M325.548,195.123   c-8.183-5.107-16.696-10.222-25.548-15.333c-8.853-5.111-17.539-9.926-26.053-14.459c15.802-7.464,31.067-13.935,45.621-19.433   C322.083,161.251,324.111,177.705,325.548,195.123z M256,16c22.539,0,46.779,43.186,60.597,113.392   c-18.895,7.104-39.146,15.954-60.597,26.678c-21.452-10.724-41.702-19.574-60.598-26.678C209.221,59.186,233.46,16,256,16z    M192.432,145.898c14.553,5.498,29.818,11.969,45.621,19.433c-8.515,4.533-17.2,9.348-26.053,14.459   c-8.853,5.111-17.365,10.226-25.548,15.333C187.888,177.705,189.917,161.251,192.432,145.898z M168.505,226.208   C168.173,235.848,168,245.778,168,256s0.173,20.151,0.505,29.792c-14.365-9.953-27.601-19.937-39.64-29.792   C140.903,246.145,154.139,236.161,168.505,226.208z M48.154,376c-11.27-19.52,14.011-62.105,67.902-109.175   c15.6,12.812,33.39,25.924,53.403,39.14c1.439,23.939,3.899,45.902,7.195,65.818C108.944,394.918,59.424,395.519,48.154,376z    M192.432,366.102c-2.515-15.353-4.544-31.808-5.981-49.225c8.183,5.107,16.696,10.222,25.548,15.333   c8.853,5.111,17.538,9.926,26.053,14.459C222.251,354.133,206.986,360.604,192.432,366.102z M273.947,346.669   c8.515-4.533,17.2-9.348,26.053-14.459c8.853-5.111,17.365-10.226,25.548-15.333c-1.437,17.417-3.466,33.872-5.981,49.225   C305.014,360.604,289.749,354.133,273.947,346.669z M463.846,376c-11.27,19.52-60.79,18.919-128.499-4.217   c3.296-19.916,5.756-41.878,7.195-65.818c20.013-13.216,37.803-26.328,53.403-39.14C449.835,313.895,475.116,356.48,463.846,376z" fill="#5c546a"/><circle cx="256" cy="256" r="48" fill="#ffcf00"/><path d="M240,456c0-9.678-4.302-18.345-11.091-24.213c0.371,0.321,0.735,0.65,1.091,0.987   c-1.268-0.153-2.557-0.241-3.866-0.241c-17.673,0-32,14.327-32,32c0,9.149,3.845,17.394,10,23.226   c-4.453-0.537-8.625-1.988-12.323-4.16c4.75,2.792,10.281,4.4,16.189,4.4c3.164,0,6.217-0.466,9.103-1.322   c5.158-1.528,9.775-4.316,13.486-8.015C236.402,472.87,240,464.855,240,456z" fill="#ffedb9"/><path d="M194.133,464.533c0-17.673,14.327-32,32-32c1.31,0,2.598,0.088,3.866,0.241   c-0.356-0.337-0.72-0.666-1.091-0.987c-0.005-0.004-0.01-0.009-0.015-0.013c-0.365-0.315-0.737-0.622-1.116-0.92   c-0.014-0.011-0.029-0.022-0.043-0.034c-0.37-0.291-0.747-0.573-1.13-0.848c-0.026-0.019-0.052-0.037-0.079-0.056   c-0.373-0.266-0.752-0.524-1.137-0.773c-0.04-0.026-0.08-0.051-0.119-0.076c-0.373-0.24-0.751-0.472-1.135-0.697   c-0.057-0.033-0.114-0.066-0.171-0.099c-0.37-0.214-0.743-0.42-1.122-0.619c-0.076-0.04-0.154-0.079-0.231-0.118   c-0.363-0.187-0.73-0.369-1.101-0.542c-0.098-0.046-0.198-0.089-0.297-0.134c-0.355-0.161-0.712-0.319-1.074-0.467   c-0.121-0.05-0.243-0.095-0.364-0.144c-0.344-0.137-0.69-0.271-1.041-0.395c-0.147-0.052-0.296-0.1-0.443-0.15   c-0.331-0.113-0.663-0.224-0.999-0.326c-0.172-0.052-0.347-0.098-0.521-0.148c-0.317-0.09-0.633-0.181-0.954-0.261   c-0.202-0.051-0.406-0.094-0.61-0.141c-0.298-0.069-0.596-0.14-0.897-0.2c-0.233-0.047-0.469-0.084-0.703-0.126   c-0.278-0.049-0.555-0.102-0.835-0.144c-0.27-0.041-0.544-0.07-0.817-0.104c-0.25-0.031-0.497-0.067-0.748-0.092   c-0.33-0.033-0.664-0.053-0.998-0.076c-0.198-0.014-0.395-0.034-0.595-0.044C209.081,424.014,208.542,424,208,424   c-0.784,0-1.558,0.038-2.327,0.093c-5.74,0.413-11.063,2.33-15.567,5.374C181.595,435.218,176,444.955,176,456   c0,0.533,0.014,1.062,0.04,1.589c0.009,0.176,0.026,0.35,0.037,0.525c0.023,0.349,0.045,0.697,0.079,1.042   c0.021,0.208,0.049,0.415,0.073,0.622c0.036,0.309,0.072,0.618,0.117,0.924c0.032,0.221,0.072,0.439,0.109,0.659   c0.049,0.288,0.098,0.577,0.154,0.863c0.045,0.226,0.095,0.451,0.144,0.675c0.06,0.274,0.122,0.548,0.189,0.819   c0.057,0.229,0.118,0.457,0.18,0.685c0.071,0.261,0.144,0.522,0.222,0.78c0.069,0.231,0.141,0.461,0.215,0.689   c0.081,0.25,0.165,0.498,0.252,0.745c0.082,0.232,0.164,0.462,0.251,0.691c0.09,0.238,0.184,0.473,0.279,0.708   c0.094,0.232,0.189,0.465,0.289,0.694c0.097,0.224,0.199,0.444,0.301,0.665c0.109,0.236,0.217,0.472,0.331,0.705   c0.101,0.204,0.206,0.405,0.311,0.607c0.125,0.243,0.25,0.486,0.381,0.725c0.097,0.176,0.2,0.349,0.301,0.523   c0.149,0.258,0.295,0.518,0.451,0.771c0.067,0.11,0.14,0.217,0.209,0.326c0.697,1.105,1.456,2.169,2.279,3.177   c0.002,0.003,0.004,0.005,0.006,0.008c0.255,0.313,0.519,0.617,0.786,0.92c0.055,0.063,0.108,0.127,0.164,0.189   c0.255,0.285,0.518,0.563,0.783,0.838c0.071,0.074,0.141,0.15,0.213,0.223c0.264,0.269,0.534,0.531,0.807,0.791   c0.077,0.073,0.154,0.148,0.231,0.221c0.277,0.258,0.56,0.51,0.846,0.759c0.077,0.067,0.153,0.134,0.231,0.2   c0.294,0.25,0.592,0.495,0.895,0.734c0.072,0.057,0.144,0.114,0.217,0.171c0.314,0.244,0.633,0.483,0.956,0.716   c0.06,0.043,0.12,0.086,0.181,0.128c0.34,0.241,0.684,0.477,1.034,0.705c0.04,0.026,0.08,0.051,0.12,0.077   c0.373,0.241,0.751,0.476,1.135,0.701c0.004,0.003,0.009,0.005,0.013,0.008c3.697,2.172,7.869,3.623,12.323,4.16   C197.979,481.927,194.133,473.682,194.133,464.533z" fill="#ffd586"/><path d="M410.133,96.533c-17.673,0-32,14.327-32,32c0,9.149,3.845,17.394,10,23.226   c-4.453-0.537-8.625-1.987-12.321-4.159c4.75,2.792,10.28,4.4,16.188,4.4c16.979,0,30.862-13.226,31.927-29.937   C423.97,121.38,424,120.694,424,120c0-4.926-1.115-9.591-3.104-13.759c-1.918-4.021-4.654-7.573-7.988-10.454   c0.371,0.321,0.735,0.65,1.092,0.988C412.731,96.621,411.443,96.533,410.133,96.533z" fill="#708aff"/><path d="M360.04,121.589c0.009,0.176,0.025,0.35,0.037,0.526c0.023,0.349,0.046,0.697,0.079,1.042   c0.021,0.208,0.049,0.414,0.073,0.622c0.036,0.309,0.072,0.618,0.117,0.924c0.032,0.221,0.072,0.439,0.109,0.658   c0.049,0.289,0.098,0.577,0.154,0.863c0.044,0.226,0.094,0.451,0.144,0.675c0.06,0.274,0.122,0.548,0.189,0.819   c0.057,0.229,0.118,0.457,0.18,0.685c0.071,0.261,0.144,0.522,0.221,0.78c0.069,0.231,0.141,0.461,0.215,0.689   c0.081,0.25,0.165,0.498,0.252,0.745c0.082,0.231,0.165,0.462,0.251,0.691c0.077,0.204,0.156,0.406,0.237,0.608   c0.014,0.034,0.028,0.067,0.042,0.101c0.094,0.232,0.189,0.464,0.289,0.694c0.097,0.224,0.2,0.446,0.302,0.668   c0.108,0.235,0.216,0.47,0.33,0.701c0.101,0.205,0.207,0.407,0.312,0.61c0.125,0.242,0.249,0.485,0.381,0.723   c0.097,0.176,0.2,0.349,0.3,0.523c0.149,0.258,0.295,0.518,0.451,0.771c0.068,0.11,0.14,0.217,0.209,0.326   c0.697,1.105,1.455,2.168,2.278,3.176c0.002,0.003,0.005,0.006,0.007,0.009c0.254,0.311,0.517,0.615,0.783,0.916   c0.056,0.064,0.111,0.13,0.168,0.194c0.254,0.284,0.515,0.56,0.779,0.834c0.073,0.075,0.143,0.153,0.217,0.227   c0.263,0.268,0.533,0.531,0.806,0.79c0.077,0.074,0.154,0.148,0.232,0.221c0.277,0.258,0.559,0.51,0.845,0.758   c0.077,0.067,0.154,0.135,0.232,0.201c0.293,0.25,0.592,0.494,0.894,0.734c0.072,0.057,0.145,0.114,0.217,0.17   c0.314,0.244,0.632,0.483,0.956,0.716c0.06,0.043,0.121,0.086,0.182,0.129c0.339,0.241,0.683,0.476,1.032,0.704   c0.041,0.027,0.082,0.052,0.123,0.079c0.372,0.24,0.749,0.475,1.132,0.7c0.005,0.003,0.011,0.006,0.016,0.009   c3.697,2.171,7.868,3.622,12.321,4.159c-6.155-5.832-10-14.077-10-23.226c0-17.673,14.327-32,32-32c1.31,0,2.598,0.088,3.866,0.241   c-0.356-0.338-0.72-0.667-1.092-0.988c-0.005-0.004-0.009-0.008-0.014-0.012c-0.365-0.316-0.738-0.623-1.118-0.922   c-0.013-0.01-0.027-0.021-0.04-0.032c-0.371-0.291-0.749-0.574-1.132-0.849c-0.025-0.018-0.051-0.036-0.077-0.055   c-0.373-0.266-0.752-0.524-1.137-0.774c-0.04-0.026-0.079-0.051-0.119-0.076c-0.373-0.24-0.751-0.473-1.135-0.697   c-0.056-0.033-0.114-0.065-0.17-0.098c-0.37-0.214-0.744-0.421-1.123-0.62c-0.076-0.04-0.153-0.078-0.229-0.117   c-0.364-0.187-0.73-0.369-1.102-0.542c-0.098-0.046-0.198-0.089-0.297-0.134c-0.355-0.161-0.712-0.319-1.073-0.467   c-0.121-0.05-0.244-0.096-0.365-0.144c-0.344-0.137-0.69-0.27-1.04-0.395c-0.146-0.052-0.294-0.099-0.441-0.149   c-0.332-0.113-0.664-0.224-1-0.326c-0.172-0.052-0.346-0.098-0.519-0.147c-0.317-0.09-0.634-0.181-0.955-0.262   c-0.202-0.051-0.406-0.094-0.61-0.141c-0.298-0.069-0.596-0.14-0.897-0.2c-0.233-0.047-0.469-0.084-0.703-0.126   c-0.278-0.049-0.554-0.102-0.835-0.144c-0.271-0.041-0.544-0.07-0.817-0.104c-0.249-0.031-0.497-0.067-0.748-0.092   c-0.33-0.033-0.664-0.053-0.997-0.076c-0.198-0.014-0.396-0.034-0.595-0.044C393.081,88.014,392.542,88,392,88   c-16.088,0-29.399,11.874-31.658,27.335C360.12,116.858,360,118.415,360,120C360,120.533,360.014,121.062,360.04,121.589z" fill="#3d6edd"/><path d="M89.205,219.702C93.458,214.27,96,207.434,96,200c0-9.149-3.845-17.394-10-23.226   c-1.268-0.153-2.557-0.241-3.866-0.241c-17.673,0-32,14.327-32,32c0,9.148,3.845,17.394,10,23.226   c-4.452-0.536-8.622-1.986-12.318-4.157C52.565,230.393,58.094,232,64,232c4.223,0,8.251-0.826,11.942-2.312   C81.2,227.57,85.764,224.099,89.205,219.702z" fill="#ff7400"/><path d="M50.133,208.533c0-17.673,14.327-32,32-32c1.31,0,2.598,0.088,3.866,0.241l0,0l0,0   c-0.355-0.337-0.719-0.666-1.09-0.986c-0.005-0.005-0.011-0.01-0.017-0.015c-0.364-0.314-0.736-0.621-1.115-0.919   c-0.015-0.011-0.03-0.023-0.044-0.035c-0.37-0.29-0.746-0.573-1.129-0.847c-0.027-0.019-0.053-0.038-0.08-0.057   c-0.372-0.265-0.75-0.522-1.134-0.772c-0.041-0.027-0.082-0.052-0.123-0.079c-0.372-0.239-0.749-0.471-1.131-0.695   c-0.058-0.034-0.117-0.067-0.176-0.101c-0.368-0.213-0.741-0.419-1.118-0.617c-0.077-0.041-0.156-0.08-0.233-0.12   c-0.363-0.187-0.729-0.369-1.1-0.542c-0.098-0.046-0.197-0.088-0.294-0.133c-0.355-0.161-0.712-0.318-1.073-0.467   c-0.123-0.05-0.247-0.097-0.37-0.146c-0.343-0.136-0.688-0.269-1.037-0.394c-0.146-0.052-0.295-0.1-0.443-0.15   c-0.331-0.113-0.662-0.224-0.998-0.326c-0.174-0.053-0.35-0.099-0.525-0.149c-0.316-0.09-0.631-0.18-0.951-0.26   c-0.202-0.051-0.407-0.094-0.61-0.141c-0.298-0.069-0.596-0.14-0.897-0.2c-0.233-0.047-0.469-0.084-0.703-0.126   c-0.278-0.049-0.555-0.102-0.835-0.144c-0.271-0.041-0.544-0.07-0.817-0.104c-0.25-0.031-0.497-0.067-0.748-0.092   c-0.33-0.033-0.664-0.053-0.997-0.076c-0.199-0.014-0.396-0.034-0.595-0.044C65.081,168.014,64.542,168,64,168   c-4.191,0-8.189,0.814-11.857,2.279c-5.044,2.014-9.459,5.267-12.857,9.393C34.734,185.199,32,192.28,32,200   c0,0.533,0.014,1.062,0.04,1.589c0.009,0.176,0.026,0.35,0.037,0.526c0.023,0.349,0.045,0.697,0.079,1.042   c0.02,0.208,0.049,0.414,0.073,0.622c0.037,0.309,0.072,0.618,0.118,0.924c0.032,0.221,0.072,0.439,0.109,0.659   c0.049,0.288,0.098,0.577,0.154,0.863c0.045,0.226,0.095,0.451,0.144,0.675c0.06,0.274,0.122,0.548,0.189,0.819   c0.057,0.23,0.118,0.457,0.18,0.685c0.071,0.261,0.144,0.522,0.222,0.78c0.069,0.231,0.141,0.461,0.215,0.689   c0.081,0.25,0.165,0.498,0.252,0.745c0.082,0.232,0.165,0.462,0.251,0.692c0.09,0.238,0.184,0.473,0.279,0.708   c0.094,0.232,0.189,0.464,0.289,0.694c0.097,0.224,0.2,0.446,0.302,0.668c0.108,0.234,0.216,0.469,0.329,0.701   c0.101,0.205,0.208,0.407,0.313,0.61c0.125,0.242,0.249,0.485,0.38,0.723c0.097,0.177,0.201,0.349,0.301,0.524   c0.148,0.258,0.295,0.516,0.45,0.769c0.069,0.112,0.143,0.221,0.213,0.332c0.694,1.1,1.448,2.157,2.267,3.161   c0.005,0.006,0.01,0.013,0.015,0.019c0.254,0.311,0.516,0.614,0.781,0.915c0.057,0.064,0.111,0.13,0.168,0.194   c0.254,0.283,0.515,0.56,0.779,0.834c0.073,0.075,0.144,0.152,0.217,0.227c0.263,0.268,0.533,0.531,0.806,0.79   c0.077,0.074,0.154,0.148,0.232,0.221c0.277,0.258,0.559,0.51,0.845,0.758c0.077,0.067,0.154,0.135,0.232,0.201   c0.293,0.25,0.592,0.494,0.894,0.734c0.072,0.057,0.145,0.114,0.217,0.171c0.313,0.244,0.631,0.482,0.954,0.714   c0.062,0.044,0.123,0.088,0.185,0.132c0.339,0.24,0.682,0.475,1.03,0.702c0.041,0.027,0.082,0.053,0.123,0.079   c0.372,0.24,0.748,0.474,1.131,0.699c0.007,0.004,0.014,0.008,0.021,0.012c3.696,2.17,7.866,3.62,12.318,4.157   C53.979,225.927,50.133,217.682,50.133,208.533z" fill="#d55a00"/></g><g transform="matrix(0.03960341215133667 0 0 0.03960341215133667 77.5 340)" id="L1_53"><path d="M392.001,84.32 347.315,129.006 392.001,173.693z" fill="none"/><path d="M291.317,73.007 336.002,117.694 380.689,73.007z" fill="none"/><path d="M380.689,73.007l-44.686,44.686l5.657,5.658l0,0l5.655,5.655l44.686-44.686v89.374l16,16V68.32   l21.654-21.654c-4.942-2.365-8.947-6.371-11.312-11.313l-21.654,21.654H275.317l16,16H380.689z" fill="#ff9300"/><path d="M208.004,209.007c13.086,0,24.703,6.285,32,16l76-76L187.529,20.533   c3.867-5.296,7.929-10.482,12.417-15.405C145.584,64.744,136.66,153.781,177.712,222.9   C185.048,214.397,195.893,209.007,208.004,209.007z" fill="#d5d9de"/><path d="M429.655,46.666c3.134,1.5,6.643,2.341,10.348,2.341c13.255,0,24-10.745,24-24s-10.745-24-24-24   s-24,10.745-24,24c0,3.705,0.841,7.213,2.34,10.346C420.708,40.295,424.713,44.301,429.655,46.666z" fill="#ffcf00"/><path d="M247.983,248.204c0.005,0.268,0.02,0.534,0.02,0.803c0,22.092-17.909,40-40,40s-40-17.908-40-40   c0-0.278,0.015-0.552,0.021-0.829l-30.753,176.829h141.46l-22.646-130.214L247.983,248.204z" fill="#888693"/><path d="M120.002,425.007c-8.82,0-16,7.176-16,16v24h208v-24c0-8.824-7.18-16-16-16h-17.27h-141.46H120.002z   " fill="#b6b8be"/><path d="M80.002,465.007c-13.234,0-24,10.766-24,24h304c0-13.234-10.766-24-24-24h-24h-208H80.002z" fill="#888693"/><path d="M48.002,489.007c-4.422,0-8,3.582-8,8s3.578,8,8,8h320c4.422,0,8-3.582,8-8s-3.578-8-8-8h-8h-304   H48.002z" fill="#5c546a"/><path d="M208.004,289.007c22.091,0,40-17.908,40-40c0-0.269-0.015-0.535-0.02-0.803l8.102,46.589   c25.517,12.37,52.864,18.472,80.064,18.472c44.633-0.004,88.836-16.383,123.734-48.207c-3.52,3.21-7.198,6.15-10.898,9.044   c-1.482,1.146-2.95,2.32-4.455,3.425l-0.004,0.003L316.004,149.007l25.656-25.656l-5.657-5.658l-44.686-44.686l-16-16   L223.033,4.722c-3.094-3.098-7.438-4.852-11.789-4.715c-4.375,0.105-8.383,1.926-11.297,5.121   c-4.489,4.922-8.551,10.109-12.417,15.405l128.474,128.474l-76,76c-7.298-9.715-18.914-16-32-16   c-12.111,0-22.956,5.39-30.291,13.893c-5.876,6.812-9.491,15.623-9.688,25.278c-0.006,0.277-0.021,0.551-0.021,0.829   C168.004,271.099,185.912,289.007,208.004,289.007z M224.004,249.007c0,8.837-7.163,16-16,16s-16-7.163-16-16   c0-8.836,7.163-16,16-16S224.004,240.171,224.004,249.007z" fill="#b6b8be"/><circle cx="208" cy="249" r="16" fill="#5c546a"/><path d="M347.315,129.006l-5.655-5.655l0,0l-25.656,25.656l128.523,128.524l0.004-0.003   c1.504-1.105,2.972-2.279,4.455-3.425c3.7-2.895,7.378-5.834,10.898-9.044c3.203-2.918,5.023-6.938,5.117-11.313   c0.102-4.383-1.617-8.672-4.711-11.762l-52.289-52.29l-16-16L347.315,129.006z" fill="#888693"/></g><g transform="matrix(0.078125 0 0 0.078125 155 330)" id="L1_54"><path d="M256,59.313 243.312,72 256,72 268.687,72z" fill="none"/><path d="M232,416 232,432 256,432 280,432 280,416 256,416z" fill="#5c546a"/><path d="M240,456h16v-24h-24h-8c-8.82,0-16,7.176-16,16v48c0,8.824,7.18,16,16,16h8v-48   C232,459.582,235.582,456,240,456z" fill="#888693"/><path d="M256,456h16c4.418,0,8,3.582,8,8v48h8c8.82,0,16-7.176,16-16v-48c0-8.824-7.18-16-16-16h-8h-24V456z   " fill="#b6b8be"/><rect x="88px" y="280px" width="72px" height="48px" fill="#5c546a"/><path d="M88,392h48c13.234,0,24-10.766,24-24v-24H88V392z" fill="#5c546a"/><rect x="0px" y="280px" width="72px" height="48px" fill="#5c546a"/><path d="M0,344v24c0,13.234,10.766,24,24,24h48v-48H0z" fill="#5c546a"/><rect x="0px" y="216px" width="72px" height="48px" fill="#5c546a"/><rect x="88px" y="216px" width="72px" height="48px" fill="#5c546a"/><path d="M72,152H24c-13.234,0-24,10.766-24,24v24h72V152z" fill="#5c546a"/><path d="M160,200v-24c0-13.234-10.766-24-24-24H88v48H160z" fill="#5c546a"/><path d="M160,264 88,264 88,216 160,216 160,200 88,200 88,152 72,152 72,200 0,200 0,216 72,216    72,264 0,264 0,280 72,280 72,328 0,328 0,344 72,344 72,392 88,392 88,344 160,344 160,328 88,328 88,280 160,280 176,280    176,264z" fill="#888693"/><rect x="440px" y="280px" width="72px" height="48px" fill="#5c546a"/><path d="M352,344v24c0,13.234,10.766,24,24,24h48v-48H352z" fill="#5c546a"/><path d="M440,392h48c13.234,0,24-10.766,24-24v-24h-72V392z" fill="#5c546a"/><rect x="352px" y="280px" width="72px" height="48px" fill="#5c546a"/><path d="M424,152h-48c-13.234,0-24,10.766-24,24v24h72V152z" fill="#5c546a"/><rect x="440px" y="216px" width="72px" height="48px" fill="#5c546a"/><path d="M488,152h-48v48h72v-24C512,162.766,501.234,152,488,152z" fill="#5c546a"/><rect x="352px" y="216px" width="72px" height="48px" fill="#5c546a"/><path d="M440,152 424,152 424,200 352,200 352,216 424,216 424,264 352,264 336,264 336,280 352,280    424,280 424,328 352,328 352,344 424,344 424,392 440,392 440,344 512,344 512,328 440,328 440,280 512,280 512,264 440,264    440,216 512,216 512,200 440,200z" fill="#888693"/><path d="M272,200v-17.209c-5.217,0.792-10.559,1.209-16,1.209s-10.783-0.417-16-1.209V200h16H272z" fill="#5c546a"/><path d="M336,216c0-8.824-7.18-16-16-16h-48h-16v40h16c13.255,0,24,10.745,24,24v152h16   c13.234,0,24-10.766,24-24V280v-16V216z" fill="#ffcf00"/><path d="M240,240h16v-40h-16h-48c-8.82,0-16,7.176-16,16v48v16v112c0,13.234,10.766,24,24,24h16V264   C216,250.745,226.745,240,240,240z" fill="#ff9300"/><path d="M256,59.313L268.687,72h22.625L264,44.688v-5.767c-1.178,0.682-2.541,1.079-4,1.079h-8   c-1.459,0-2.822-0.397-4-1.079v5.767L220.687,72h22.625L256,59.313z" fill="#5c546a"/><path d="M256,72h-12.688h-22.625h-52.281c-4.484,0-8.797,1.906-11.828,5.227   c-3.047,3.332-4.555,7.824-4.148,12.32c4.413,48.436,40.882,86.15,87.57,93.244c5.217,0.792,10.559,1.209,16,1.209V72z" fill="#888693"/><path d="M260,40c1.459,0,2.822-0.397,4-1.079c2.389-1.384,4-3.961,4-6.921V8c0-4.418-3.582-8-8-8h-8   c-4.418,0-8,3.582-8,8v24c0,2.959,1.611,5.537,4,6.921c1.178,0.682,2.541,1.079,4,1.079H260z" fill="#ffcf00"/><path d="M256,240h-16c-13.255,0-24,10.745-24,24v152h16h24V240z" fill="#ff7400"/><path d="M256,72v112c5.441,0,10.783-0.417,16-1.209c46.688-7.093,83.157-44.808,87.57-93.244   c0.406-4.496-1.102-8.988-4.148-12.32C352.39,73.906,348.078,72,343.594,72h-52.281h-22.625H256z" fill="#b6b8be"/><path d="M272,240h-16v176h24h16V264C296,250.745,285.255,240,272,240z" fill="#ff9300"/><path d="M240,456c-4.418,0-8,3.582-8,8v48h24v-56H240z" fill="#5c546a"/><path d="M272,456h-16v56h24v-48C280,459.581,276.418,456,272,456z" fill="#888693"/></g><g transform="matrix(0.039062805473804474 0 0 0.039062805473804474 252.5 340)" id="L1_55"><path d="M263.998,141.006v-17.008c0-4.422-3.578-8-8-8c-4.422,0-8,3.578-8,8v17.008   c2.557-0.658,5.238-1.008,8-1.008C258.76,139.998,261.441,140.348,263.998,141.006z" fill="#52798f"/><path d="M255.998,163.998h21.438h9.554c-2.894-11.245-11.747-20.098-22.992-22.992   c-2.557-0.658-5.238-1.008-8-1.008c-2.762,0-5.443,0.35-8,1.008c-11.245,2.894-20.098,11.747-22.992,22.992h9.554H255.998z" fill="#5c546a"/><path d="M380.279,259.998l-52.125-78.187c-7.437-11.156-19.875-17.812-33.281-17.812h-1.109l31.997,96   H380.279z" fill="#00e389"/><path d="M277.748,166.529c-0.28-0.841-0.313-1.691-0.312-2.531h-21.438v96h52.904L277.748,166.529z" fill="#00e389"/><path d="M218.233,163.998h-1.109c-13.406,0-25.844,6.656-33.281,17.812l-52.125,78.187h54.518   L218.233,163.998z" fill="#00bbbb"/><path d="M255.998,163.998H234.56c0,0.84-0.032,1.69-0.312,2.531l-31.154,93.469h52.904V163.998z" fill="#00bbbb"/><path d="M277.748,166.529l31.154,93.469h16.859l-31.997-96h-6.774h-9.554   C277.436,164.838,277.468,165.688,277.748,166.529z" fill="#00bbbb"/><path d="M203.094,259.998l31.154-93.469c0.28-0.841,0.313-1.691,0.312-2.531h-9.554h-6.774l-31.998,96   H203.094z" fill="#52798f"/><path d="M127.998,347.998c-0.695,0-1.391-0.094-2.063-0.273l-2.466-0.657l33.583,40.29   c4.57,5.492,11.297,8.641,18.438,8.641h80.508v-48H127.998z" fill="#5c546a"/><path d="M383.998,347.998h-128v48h80.508c7.141,0,13.867-3.148,18.438-8.633l33.583-40.298l-2.466,0.658   C385.389,347.904,384.693,347.998,383.998,347.998z" fill="#52798f"/><path d="M511.224,304.568c-0.867-1.82-22.195-44.57-111.227-44.57h-19.719h-54.518h-16.859h-52.904v16v32   h255.989c0,1.146-0.237,2.294-0.731,3.359C512.256,309.201,512.24,306.709,511.224,304.568z" fill="#e3e6e9"/><path d="M255.998,307.998v-32v-16h-52.904h-16.859h-54.518h-19.719c-89.031,0-110.359,42.75-111.227,44.57   c-1.016,2.141-1.031,4.633-0.031,6.789c-0.494-1.065-0.731-2.213-0.731-3.359H255.998z" fill="#b6b8be"/><path d="M127.998,347.998h128v-16v-24H0.009c0,1.146,0.237,2.294,0.731,3.359   c0.992,2.156,2.898,3.758,5.195,4.367l117.534,31.343l2.466,0.657C126.608,347.904,127.303,347.998,127.998,347.998z" fill="#888693"/><path d="M255.998,307.998v24v16h128c0.695,0,1.391-0.094,2.063-0.273l2.466-0.658l117.534-31.342   c2.297-0.609,4.203-2.211,5.195-4.367c0.494-1.065,0.731-2.213,0.731-3.359H255.998z" fill="#b6b8be"/></g><g transform="matrix(0.07977964729070663 0 0 0.07977964729070663 67.5 67.5)" id="L1_56"><path d="M71.312,339.206c-0.53-1.071-1.051-2.147-1.562-3.229c-0.153-0.323-0.302-0.647-0.453-0.971   c-0.49-1.052-0.974-2.108-1.446-3.17c-0.157-0.354-0.311-0.711-0.466-1.066c-0.458-1.047-0.912-2.095-1.352-3.151   c-0.154-0.368-0.302-0.74-0.453-1.109c-0.433-1.056-0.863-2.113-1.279-3.177c-0.135-0.347-0.264-0.698-0.397-1.046   c-0.422-1.099-0.841-2.199-1.244-3.307c-0.072-0.199-0.139-0.4-0.211-0.599c-1.189-3.306-2.29-6.654-3.307-10.038   c-10.91,10.607-15.822,19.524-13.269,25.792c2.553,6.267,12.309,9.206,27.524,9.17c-0.569-1.087-1.127-2.179-1.677-3.277   C71.583,339.755,71.448,339.48,71.312,339.206z" fill="none"/><path d="M455.51,167.246c-2.554-6.269-12.304-9.214-27.527-9.176c5.802,11.084,10.594,22.778,14.257,34.962   C453.144,182.428,458.063,173.511,455.51,167.246z" fill="none"/><path d="M364.025,104.024c-68.087,0-128.217,34.032-164.337,86.005c7.352-3.214,14.827-6.378,22.429-9.475   c70.087-28.554,136.724-46.191,187.325-51.504C383.248,94.916,346.3,69.477,303.658,57.794   c32.131,8.819,61.025,25.462,84.531,47.734C380.262,104.573,372.21,104.024,364.025,104.024z" fill="#708aff"/><path d="M442.191,193.081c0.017-0.016,0.032-0.032,0.049-0.049c-3.663-12.185-8.455-23.879-14.257-34.962   c-38.626,0.097-112.509,19.413-193.649,52.47c-20.612,8.397-40.263,17.102-58.575,25.857c-7.589,21.124-11.734,43.89-11.734,67.627   c0,57.178,24.033,108.712,62.502,145.162c-55.619-6.704-104.214-36.219-136.139-78.919c0.416,0.558,0.829,1.118,1.251,1.671   c36.542,47.863,94.185,78.753,159.052,78.753c110.457,0,200-89.543,200-200c0-8.11-0.496-16.103-1.434-23.96   c-0.008,0.006-0.015,0.012-0.023,0.018C447.851,215.189,445.461,203.947,442.191,193.081z" fill="#708aff"/><path d="M59.143,308.342l-0.001,0.001c1.017,3.384,2.118,6.732,3.307,10.038   C61.259,315.076,60.161,311.726,59.143,308.342z" fill="#708aff"/><path d="M226.527,449.186c-38.469-36.45-62.502-87.984-62.502-145.162c0-23.737,4.145-46.503,11.734-67.627   c-53.781,25.713-95.958,51.86-116.616,71.945c1.018,3.384,2.116,6.734,3.306,10.04c0.072,0.199,0.139,0.4,0.211,0.599   c0.403,1.108,0.822,2.208,1.244,3.307c0.134,0.348,0.262,0.698,0.397,1.046c0.415,1.065,0.845,2.122,1.279,3.177   c0.151,0.369,0.299,0.741,0.453,1.109c0.441,1.056,0.894,2.104,1.352,3.151c0.156,0.355,0.309,0.712,0.466,1.066   c0.472,1.062,0.956,2.118,1.446,3.17c0.151,0.324,0.301,0.648,0.453,0.971c0.511,1.082,1.032,2.158,1.562,3.229   c0.136,0.274,0.271,0.548,0.408,0.822c0.549,1.098,1.108,2.191,1.677,3.277c0.04,0,0.077,0.001,0.116,0.001   c3.974,7.587,8.371,14.915,13.225,21.905c0.077,0.109,0.152,0.22,0.229,0.329c0.468,0.671,0.948,1.332,1.424,1.997   c0.567,0.786,1.133,1.572,1.711,2.349c0.095,0.128,0.191,0.255,0.286,0.382C122.313,412.967,170.908,442.482,226.527,449.186z" fill="#3d6edd"/><path d="M199.688,190.029c36.12-51.973,96.249-86.005,164.337-86.005c8.185,0,16.237,0.549,24.165,1.505   c-23.506-22.272-52.4-38.915-84.531-47.734c-0.065-0.018-0.13-0.035-0.195-0.053c-1.434-0.392-2.875-0.768-4.322-1.129   c-0.172-0.043-0.344-0.083-0.515-0.126c-1.352-0.333-2.708-0.654-4.071-0.959c-0.274-0.062-0.549-0.119-0.823-0.179   c-1.272-0.28-2.547-0.55-3.827-0.805c-0.373-0.074-0.749-0.143-1.123-0.215c-1.195-0.231-2.392-0.456-3.594-0.665   c-0.465-0.081-0.934-0.154-1.4-0.232c-1.122-0.187-2.245-0.372-3.374-0.54c-0.559-0.083-1.121-0.156-1.682-0.235   c-1.047-0.147-2.095-0.295-3.148-0.426c-0.653-0.081-1.309-0.15-1.964-0.225c-0.972-0.111-1.943-0.225-2.92-0.323   c-0.752-0.075-1.509-0.135-2.263-0.201c-0.889-0.078-1.777-0.162-2.669-0.229c-0.869-0.065-1.742-0.112-2.614-0.166   c-0.789-0.049-1.577-0.106-2.369-0.145c-1.041-0.052-2.088-0.083-3.134-0.119c-0.631-0.021-1.259-0.054-1.892-0.07   c-1.684-0.042-3.373-0.064-5.067-0.064c-110.457,0-200,89.543-200,200c0,1.664,0.022,3.323,0.063,4.978   c0.013,0.553,0.04,1.103,0.058,1.656c0.036,1.1,0.072,2.2,0.125,3.295c0.032,0.657,0.077,1.311,0.115,1.966   c0.058,0.985,0.115,1.97,0.187,2.951c0.052,0.701,0.114,1.4,0.173,2.099c0.078,0.929,0.156,1.857,0.247,2.782   c0.071,0.726,0.151,1.449,0.23,2.173c0.074,0.682,0.143,1.365,0.224,2.045C87.694,246.493,139.248,216.453,199.688,190.029z" fill="#3d6edd"/><path d="M499.727,149.232c-7.739-18.997-41.586-25.296-90.284-20.182   c-50.601,5.313-117.238,22.95-187.325,51.504c-7.602,3.097-15.077,6.261-22.429,9.475c-60.44,26.424-111.994,56.464-147.574,84.606   c-38.395,30.368-58.196,58.521-50.458,77.514c7.737,18.99,41.593,25.27,90.265,20.166c-0.095-0.124-0.187-0.252-0.282-0.377   c-0.422-0.553-0.835-1.113-1.251-1.671c-0.095-0.128-0.192-0.254-0.286-0.382c-0.577-0.778-1.146-1.561-1.711-2.349   c-0.476-0.664-0.956-1.326-1.424-1.997c-0.076-0.109-0.152-0.219-0.229-0.329c-4.854-6.989-9.251-14.318-13.225-21.905   c-0.04,0-0.077-0.001-0.116-0.001c0,0,0,0-0.001,0c-15.215,0.036-24.971-2.903-27.524-9.17   c-2.553-6.267,2.359-15.184,13.269-25.792l0.001-0.001c20.658-20.085,62.835-46.232,116.616-71.945   c18.312-8.755,37.963-17.46,58.575-25.857c81.14-33.057,155.023-52.373,193.649-52.47c15.223-0.038,24.973,2.907,27.527,9.176   c2.553,6.266-2.366,15.182-13.27,25.786c-0.017,0.016-0.032,0.032-0.049,0.049c3.271,10.866,5.66,22.108,7.044,33.667   c0.008-0.006,0.015-0.012,0.023-0.018C487.636,196.37,507.463,168.221,499.727,149.232z" fill="#9dc1ff"/></g><g transform="matrix(0.078125 0 0 0.078125 242.5 67.5)" id="L1_57"><path d="M141.737,409.962l31.514,4.502C178.976,405.761,188.824,400,200,400V120   c0-3.228,0.054-6.418,0.159-9.567c-0.081,0.405-0.134,0.82-0.152,1.243c-2.931,72.392-39.581,134.471-72.008,189.258v93.189   C128,402.085,133.855,408.835,141.737,409.962z" fill="#b6b8be"/><path d="M173.251,414.464l-31.514-4.502c-7.882-1.126-13.737-7.877-13.737-15.839v-93.189l0,0   c-0.067,0.114-0.136,0.23-0.203,0.344C102.148,344.613,80,382.043,80,416v31.997c0,2.256,0.939,4.316,2.469,5.782   c1.19,1.14,2.737,1.919,4.476,2.151L168,466.736V432C168,425.529,169.936,419.504,173.251,414.464z" fill="#ff4f19"/><path d="M312,400c11.176,0,21.024,5.761,26.749,14.464l31.514-4.502c7.882-1.126,13.737-7.877,13.737-15.839   v-93.189c-32.427-54.787-69.076-116.866-72.008-189.258c-0.017-0.423-0.071-0.838-0.152-1.243c0.106,3.149,0.159,6.339,0.159,9.567   V400z" fill="#b6b8be"/><path d="M384.203,301.277c-0.067-0.114-0.136-0.23-0.203-0.344l0,0v93.189   c0,7.962-5.855,14.713-13.737,15.839l-31.514,4.502C342.064,419.504,344,425.529,344,432v34.736l81.055-10.807   c1.74-0.232,3.286-1.012,4.476-2.151c1.53-1.465,2.469-3.525,2.469-5.782V416C432,382.043,409.851,344.613,384.203,301.277z" fill="#ff4f19"/><path d="M200,400c5.827,0,11.29,1.572,16,4.304V120v-12.965c0-1.938,0.879-3.809,2.471-5.266   C228.041,93.02,241.722,88,256,88s27.959,5.02,37.529,13.77c1.592,1.457,2.471,3.328,2.471,5.266V120v284.304   c4.71-2.732,10.173-4.304,16-4.304V120c0-3.228-0.054-6.418-0.159-9.567C309.71,46.836,286.415,0,256,0   s-53.71,46.836-55.841,110.433C200.054,113.582,200,116.772,200,120V400z" fill="#e3e6e9"/><path d="M288,128h-64c-5.527,0-8-3.582-8-8v284.304c7.323,4.247,12.821,11.306,14.988,19.696H248v-96   c0-4.418,3.578-8,8-8s8,3.582,8,8v96h17.012c2.167-8.39,7.664-15.449,14.988-19.696V120C296,124.418,293.527,128,288,128z" fill="#d5d9de"/><path d="M281.012,424H264v56h16v-48C280,429.238,280.352,426.558,281.012,424z" fill="#5c546a"/><path d="M230.987,424c0.661,2.558,1.012,5.238,1.012,8v48h16v-56H230.987z" fill="#5c546a"/><path d="M230.987,424c-2.167-8.39-7.664-15.449-14.988-19.696c-4.71-2.732-10.173-4.304-16-4.304   c-11.176,0-21.024,5.761-26.749,14.464C169.936,419.504,168,425.529,168,432v34.736V480h40h16h8v-48   C232,429.238,231.648,426.558,230.987,424z" fill="#888693"/><path d="M264,328c0-4.418-3.578-8-8-8s-8,3.582-8,8v96v56v24c0,4.418,3.578,8,8,8s8-3.582,8-8v-24v-56V328z" fill="#e5001e"/><path d="M224,128h64c5.527,0,8-3.582,8-8v-12.965c0-1.938-0.879-3.809-2.471-5.266   C283.959,93.02,270.277,88,256,88s-27.959,5.02-37.529,13.77c-1.592,1.457-2.471,3.328-2.471,5.266V120   C216,124.418,218.472,128,224,128z" fill="#5c546a"/><path d="M208,480h-40v24c0,4.418,3.578,8,8,8h48c4.422,0,8-3.582,8-8v-24h-8H208z" fill="#5c546a"/><path d="M344,432c0-6.471-1.936-12.496-5.251-17.536C333.024,405.761,323.176,400,312,400   c-5.827,0-11.29,1.572-16,4.304c-7.323,4.247-12.821,11.306-14.988,19.696c-0.661,2.558-1.012,5.238-1.012,8v48h8h16h40v-13.263   V432z" fill="#888693"/><path d="M288,480h-8v24c0,4.418,3.578,8,8,8h48c4.422,0,8-3.582,8-8v-24h-40H288z" fill="#5c546a"/></g><g transform="matrix(0.1458333283662796 0 0 0.1458333283662796 315 140)" id="L1_58"><path d="M303.561,8.525c38.557,10.583,73.23,30.554,101.437,57.281C395.485,64.659,385.822,64,376,64   c-124.27,0-226.479,94.448-238.762,215.477h0c-0.003,0.032-0.006,0.065-0.009,0.097c-0.001,0.014-0.002,0.028-0.004,0.042   C168.915,285.105,204.253,288,240,288c41.859,0,82.789-3.922,118.367-11.344c14.039-2.938,27.203-6.406,39.141-10.328   c4.195-1.391,8.711,0.906,10.094,5.109c1.375,4.195-0.906,8.711-5.109,10.094c-7.778,2.554-16.087,4.897-24.746,7.059   c-0.101,0.083-0.148,0.205-0.254,0.285l-15.656,11.742l16.289,4.492c3.508,0.969,5.922,4.172,5.875,7.805   c-0.047,3.641-2.531,6.789-6.063,7.664C337.57,330.672,289.867,336,240,336c-3.523,0-6.633-2.305-7.656-5.68   s0.289-7.023,3.219-8.977c2.563-1.711,2.469-4.25,2.313-5.258c-0.156-1.016-0.844-3.469-3.813-4.313l-43.789-9.68   c-0.065-0.015-0.112-0.062-0.177-0.078c-18.638-1.396-36.801-3.486-53.936-6.363c-0.095,2.772-0.16,5.552-0.16,8.348   c0,54.205,18.011,104.173,48.33,144.339c18.574-8.458,37.683-17.042,56.006-16.331c28.82,1.266,43.547-6.867,43.688-6.953   c3.828-2.133,8.711-0.82,10.891,2.984c2.18,3.813,0.914,8.656-2.883,10.867c-0.734,0.438-18.305,10.547-52.367,9.086   c-13.441-0.686-29.28,6.086-44.936,13.195c0,0,0.001,0.001,0.002,0.002c-0.001,0.001-0.002,0.001-0.004,0.002   c5.148,5.928,10.579,11.605,16.276,17.003c-12.859-1.55-25.402-4.12-37.553-7.619c-0.001,0-0.003,0.001-0.004,0.002   c-0.035-0.01-0.07-0.022-0.105-0.032c-2.008-0.579-4.005-1.186-5.992-1.816c-1.236-0.389-2.461-0.801-3.688-1.208   c-0.474-0.159-0.949-0.314-1.421-0.475c-5.38-1.822-10.685-3.803-15.878-6.005c0.055,0.002,0.115-0.003,0.171-0.002   c-49.475-20.934-90.472-57.971-116.398-104.552C71.109,430.151,149.727,480,240,480c132.548,0,240-107.452,240-240   C480,129.458,405.259,36.388,303.561,8.525z M272,232c-0.258,0.016-0.68-0.008-1.023-0.008c-11.43,0-18.469,3.594-26.594,7.742   c-8.633,4.406-18.18,9.281-32.875,9.281c-3.891,0-8.133-0.344-12.82-1.125c-4.359-0.727-7.305-4.852-6.578-9.203   c0.719-4.359,4.828-7.352,9.203-6.578c17.211,2.852,25.813-1.531,35.797-6.625c8.938-4.57,18.742-9.945,35.023-9.484   c4.414,0.07,7.938,3.711,7.867,8.133C279.93,228.5,276.359,232,272,232z M334.289,220.945c-7.18,9.141-24.672,10.766-29.859,11.047   C304.281,232,304.141,232,303.992,232c-4.219,0-7.742-3.297-7.977-7.563c-0.242-4.406,3.133-8.18,7.539-8.422   c7.672-0.438,16.492-2.844,18.156-4.961c2.727-3.469,7.75-4.086,11.234-1.344C336.414,212.437,337.023,217.469,334.289,220.945z    M205.68,333.601c-1.523,1.516-3.602,2.398-5.68,2.398s-4.164-0.883-5.68-2.32c-1.445-1.523-2.32-3.602-2.32-5.68   s0.875-4.164,2.32-5.68c2.961-2.961,8.32-2.961,11.359,0c1.516,1.516,2.32,3.602,2.32,5.68S207.195,332.156,205.68,333.601z    M309.679,373.601c-1.523,1.516-3.602,2.398-5.68,2.398c-2.078,0-4.164-0.883-5.68-2.32c-1.445-1.523-2.32-3.602-2.32-5.68   s0.875-4.164,2.32-5.68c2.961-2.961,8.32-2.961,11.359,0c1.516,1.516,2.32,3.602,2.32,5.68S311.195,372.156,309.679,373.601z    M373.679,197.502c-1.523,1.516-3.602,2.398-5.68,2.398s-4.164-0.883-5.68-2.32c-1.445-1.523-2.32-3.602-2.32-5.68   s0.875-4.164,2.32-5.68c2.961-2.961,8.32-2.961,11.359,0c1.516,1.516,2.32,3.602,2.32,5.68S375.195,196.057,373.679,197.502z    M405.679,229.601c-1.523,1.516-3.602,2.398-5.68,2.398s-4.164-0.883-5.68-2.32c-1.445-1.523-2.32-3.602-2.32-5.68   s0.875-4.164,2.32-5.68c2.961-2.961,8.32-2.961,11.359,0c1.516,1.516,2.32,3.602,2.32,5.68S407.195,228.156,405.679,229.601z    M369.773,130.531c-0.602,0.141-1.195,0.203-1.789,0.203c-3.648,0-6.945-2.508-7.789-6.219c-0.984-4.305,1.703-8.594,6.016-9.578   c24.808-5.672,46.328-12.667,64.396-20.713c3.315,4.328,6.492,8.763,9.511,13.315C420.515,116.577,396.919,124.331,369.773,130.531   z" fill="#ff4f19"/><path d="M14.108,321.229c-1.555-4.322-2.983-8.703-4.293-13.136   C11.125,312.525,12.554,316.907,14.108,321.229z" fill="#ff4f19"/><path d="M146.532,461.038c-0.055-0.001-0.116,0.004-0.171,0.002c5.193,2.203,10.499,4.183,15.878,6.005   c0.472,0.162,0.948,0.317,1.421,0.475c1.227,0.407,2.452,0.819,3.688,1.208c1.986,0.63,3.983,1.236,5.992,1.816   c0.035,0.01,0.07,0.022,0.105,0.032c0.001,0,0.003-0.001,0.004-0.002c12.15,3.499,24.694,6.069,37.553,7.619   c-5.697-5.398-11.128-11.075-16.276-17.003c-1.46,0.663-2.921,1.326-4.375,1.989c-5.725,2.606-11.35,5.158-16.817,7.36   c-0.763-0.219-1.527-0.437-2.288-0.663c-2.699-0.804-5.369-1.67-8.03-2.559c-1.713-0.578-3.439-1.131-5.135-1.747   c-1.86-0.668-3.681-1.418-5.519-2.133c-2.014-0.789-4.034-1.565-6.021-2.406c9.272,0.228,23.412-6.149,37.177-12.414   c0.22-0.1,0.441-0.2,0.662-0.3c3.32,4.398,6.74,8.715,10.348,12.87c15.656-7.109,31.495-13.881,44.936-13.195   c34.063,1.461,51.633-8.648,52.367-9.086c3.797-2.211,5.063-7.055,2.883-10.867c-2.18-3.805-7.063-5.117-10.891-2.984   c-0.141,0.086-14.867,8.219-43.688,6.953c-18.323-0.711-37.432,7.873-56.006,16.331C154.011,408.173,136,358.205,136,304   c0-2.796,0.065-5.575,0.16-8.348c17.136,2.878,35.298,4.968,53.936,6.363c0.065,0.016,0.111,0.063,0.177,0.078l43.789,9.68   c2.969,0.844,3.656,3.297,3.813,4.313c0.156,1.008,0.25,3.547-2.313,5.258c-2.93,1.953-4.242,5.602-3.219,8.977   S236.476,336,240,336c49.867,0,97.57-5.328,137.937-15.422c3.531-0.875,6.016-4.023,6.063-7.664   c0.047-3.633-2.367-6.836-5.875-7.805l-16.289-4.492l15.656-11.742c0.106-0.08,0.153-0.201,0.254-0.285   c8.658-2.162,16.968-4.505,24.746-7.059c4.203-1.383,6.484-5.898,5.109-10.094c-1.383-4.203-5.898-6.5-10.094-5.109   c-11.938,3.922-25.102,7.391-39.141,10.328C322.789,284.078,281.859,288,240,288c-35.747,0-71.085-2.895-102.775-8.384   c0.001-0.014,0.002-0.028,0.004-0.042c-0.534,5.292-0.831,10.651-1.017,16.039c-3.252-0.546-6.532-1.072-9.705-1.676   c-4.344-0.828-7.195-5.016-6.367-9.352c0.82-4.344,5.008-7.188,9.352-6.367c2.503,0.477,5.193,0.816,7.745,1.259   C149.521,158.448,251.73,64,376,64c9.822,0,19.485,0.659,28.998,1.806C376.79,39.079,342.118,19.108,303.561,8.525   c-0.079-0.022-0.158-0.043-0.237-0.064c-1.719-0.47-3.447-0.921-5.182-1.353c-0.208-0.052-0.418-0.102-0.627-0.153   c-1.62-0.399-3.246-0.783-4.879-1.149c-0.328-0.074-0.658-0.143-0.986-0.215c-1.528-0.336-3.06-0.66-4.599-0.967   c-0.444-0.088-0.89-0.17-1.334-0.256c-1.437-0.278-2.876-0.548-4.322-0.8c-0.558-0.097-1.12-0.185-1.679-0.278   c-1.347-0.225-2.696-0.446-4.05-0.648c-0.669-0.1-1.342-0.187-2.013-0.282c-1.259-0.177-2.517-0.354-3.782-0.511   c-0.782-0.097-1.57-0.179-2.354-0.269c-1.167-0.134-2.333-0.271-3.506-0.387c-0.901-0.09-1.807-0.161-2.71-0.241   c-1.069-0.094-2.137-0.195-3.21-0.276c-1.036-0.077-2.079-0.134-3.119-0.198c-0.953-0.059-1.904-0.128-2.86-0.175   c-1.244-0.062-2.494-0.099-3.743-0.142c-0.763-0.026-1.523-0.065-2.288-0.084C244.059,0.027,242.033,0,240,0   C134.986,0,45.739,67.453,13.186,161.39c0.463-1.356,0.939-2.706,1.431-4.048c0.176,0.157,0.398,0.225,0.563,0.4   c12.797,13.672,36.086,26.328,67.344,36.594c4.203,1.383,6.484,5.898,5.109,10.094c-1.109,3.375-4.234,5.508-7.602,5.508   c-0.828,0-1.664-0.125-2.492-0.398c-29.783-9.778-53.172-21.912-68.33-35.342c1.216-4.272,2.51-8.51,3.935-12.688   C4.635,186.105,0,212.51,0,240c0,1.997,0.027,3.987,0.076,5.973c0.016,0.669,0.049,1.334,0.07,2.001   c0.043,1.314,0.086,2.628,0.15,3.937c0.039,0.795,0.093,1.585,0.14,2.378c0.069,1.176,0.137,2.351,0.223,3.522   c0.062,0.845,0.137,1.686,0.208,2.529c0.094,1.112,0.187,2.223,0.296,3.33c0.085,0.872,0.181,1.74,0.276,2.609   c0.117,1.071,0.236,2.141,0.367,3.208c0.109,0.889,0.226,1.775,0.345,2.66c0.139,1.037,0.282,2.072,0.434,3.105   c0.133,0.902,0.271,1.802,0.414,2.7c0.16,1.009,0.327,2.015,0.5,3.02c0.157,0.911,0.316,1.821,0.483,2.728   c0.18,0.98,0.37,1.956,0.562,2.932c0.182,0.923,0.364,1.845,0.557,2.764c0.198,0.948,0.408,1.893,0.618,2.837   c0.208,0.935,0.413,1.871,0.632,2.802c0.213,0.907,0.439,1.81,0.662,2.713c0.237,0.961,0.471,1.923,0.72,2.879   c0.217,0.833,0.448,1.66,0.674,2.489c0.277,1.017,0.547,2.036,0.837,3.047c0.185,0.646,0.384,1.286,0.574,1.929   c1.31,4.433,2.738,8.815,4.293,13.136c0.086,0.239,0.167,0.481,0.254,0.72c0.483,1.329,0.986,2.649,1.492,3.967   c0.16,0.418,0.315,0.839,0.477,1.255c0.498,1.276,1.014,2.544,1.533,3.809c0.183,0.445,0.361,0.892,0.546,1.336   c0.528,1.266,1.072,2.523,1.621,3.777c0.187,0.427,0.371,0.856,0.561,1.283c0.567,1.274,1.147,2.541,1.735,3.804   c0.181,0.388,0.36,0.776,0.543,1.163c0.614,1.299,1.24,2.592,1.876,3.878c0.162,0.327,0.324,0.655,0.488,0.981   c0.671,1.342,1.354,2.677,2.05,4.004c0.126,0.241,0.254,0.481,0.381,0.722c0.744,1.407,1.499,2.808,2.269,4.198   c0.067,0.12,0.134,0.239,0.201,0.359C56.061,403.068,97.058,440.104,146.532,461.038z M170.32,74.32   c2.961-2.961,8.32-2.961,11.359,0c1.516,1.516,2.32,3.602,2.32,5.68s-0.805,4.156-2.32,5.602C180.156,87.117,178.078,88,176,88   s-4.164-0.883-5.68-2.32C168.875,84.156,168,82.078,168,80S168.875,75.836,170.32,74.32z M104.835,106.028   c6.196-9.737,17.263-13.784,24.718-9.04c7.455,4.744,8.476,16.483,2.28,26.22s-17.262,13.784-24.718,9.04   S98.639,115.765,104.835,106.028z M55.635,274.818c-1.982-9.17,2.103-17.834,9.124-19.352c7.021-1.518,14.32,4.686,16.302,13.856   s-2.103,17.834-9.124,19.352C64.916,290.191,57.617,283.987,55.635,274.818z" fill="#db3f3d"/><path d="M272.133,216c-16.281-0.461-26.086,4.914-35.023,9.484c-9.984,5.094-18.586,9.477-35.797,6.625   c-4.375-0.773-8.484,2.219-9.203,6.578c-0.727,4.352,2.219,8.477,6.578,9.203c4.688,0.781,8.93,1.125,12.82,1.125   c14.695,0,24.242-4.875,32.875-9.281c8.125-4.148,15.164-7.742,26.594-7.742c0.344,0,0.766,0.023,1.023,0.008   c4.359,0,7.93-3.5,8-7.867C280.07,219.711,276.547,216.07,272.133,216z" fill="#db3f3d"/><path d="M332.945,209.711c-3.484-2.742-8.508-2.125-11.234,1.344c-1.664,2.117-10.484,4.523-18.156,4.961   c-4.406,0.242-7.781,4.016-7.539,8.422c0.234,4.266,3.758,7.563,7.977,7.563c0.148,0,0.289,0,0.438-0.008   c5.187-0.281,22.68-1.906,29.859-11.047C337.023,217.469,336.414,212.437,332.945,209.711z" fill="#db3f3d"/><ellipse cx="118px" cy="114px" rx="20px" ry="16px" transform="matrix(-0.5369 0.8437 -0.8437 -0.5369 278.5632 76.3195)" fill="#a03939"/><ellipse cx="68px" cy="272px" rx="13px" ry="16px" transform="matrix(0.9774 -0.2113 0.2113 0.9774 -55.9416 20.5831)" fill="#a03939"/><path d="M176,88c2.078,0,4.156-0.883,5.68-2.398C183.195,84.156,184,82.078,184,80s-0.805-4.164-2.32-5.68   c-3.039-2.961-8.398-2.961-11.359,0C168.875,75.836,168,77.922,168,80s0.875,4.156,2.32,5.68C171.836,87.117,173.922,88,176,88z" fill="#a03939"/><path d="M362.32,186.221c-1.445,1.516-2.32,3.602-2.32,5.68s0.875,4.156,2.32,5.68   c1.516,1.438,3.602,2.32,5.68,2.32s4.156-0.883,5.68-2.398c1.516-1.445,2.32-3.523,2.32-5.602s-0.805-4.164-2.32-5.68   C370.64,183.26,365.281,183.26,362.32,186.221z" fill="#db3f3d"/><path d="M394.32,218.32c-1.445,1.516-2.32,3.602-2.32,5.68s0.875,4.156,2.32,5.68   c1.516,1.438,3.602,2.32,5.68,2.32s4.156-0.883,5.68-2.398c1.516-1.445,2.32-3.523,2.32-5.602s-0.805-4.164-2.32-5.68   C402.64,215.359,397.281,215.359,394.32,218.32z" fill="#db3f3d"/><path d="M194.32,322.32c-1.445,1.516-2.32,3.602-2.32,5.68s0.875,4.156,2.32,5.68   c1.516,1.438,3.602,2.32,5.68,2.32s4.156-0.883,5.68-2.398c1.516-1.445,2.32-3.523,2.32-5.602s-0.805-4.164-2.32-5.68   C202.641,319.359,197.281,319.359,194.32,322.32z" fill="#db3f3d"/><path d="M298.32,362.32c-1.445,1.516-2.32,3.602-2.32,5.68s0.875,4.156,2.32,5.68   c1.516,1.438,3.602,2.32,5.68,2.32c2.078,0,4.156-0.883,5.68-2.398c1.516-1.445,2.32-3.523,2.32-5.602s-0.805-4.164-2.32-5.68   C306.64,359.359,301.281,359.359,298.32,362.32z" fill="#db3f3d"/><path d="M120.141,284.586c-0.828,4.336,2.023,8.523,6.367,9.352c3.173,0.604,6.453,1.13,9.705,1.676   c0.185-5.388,0.482-10.747,1.017-16.039c0.003-0.032,0.005-0.065,0.009-0.097h0c-2.552-0.443-5.243-0.782-7.745-1.259   C125.148,277.398,120.961,280.242,120.141,284.586z" fill="#a03939"/><path d="M77.539,209.539c0.828,0.273,1.664,0.398,2.492,0.398c3.367,0,6.492-2.133,7.602-5.508   c1.375-4.195-0.906-8.711-5.109-10.094c-31.258-10.266-54.547-22.922-67.344-36.594c-0.164-0.175-0.387-0.243-0.563-0.4   c-0.492,1.342-0.968,2.692-1.431,4.048c-0.014,0.04-0.028,0.079-0.042,0.119c-1.425,4.178-2.719,8.417-3.935,12.688   C24.367,187.627,47.756,199.761,77.539,209.539z" fill="#a03939"/><path d="M184.38,448.317c-0.22,0.1-0.442,0.2-0.662,0.3c-13.765,6.265-27.904,12.642-37.177,12.414   c1.987,0.841,4.007,1.618,6.021,2.406c1.838,0.714,3.659,1.464,5.519,2.133c1.696,0.616,3.421,1.169,5.135,1.747   c2.661,0.889,5.331,1.755,8.03,2.559c0.76,0.227,1.524,0.444,2.288,0.663c5.467-2.202,11.092-4.754,16.817-7.36   c1.454-0.663,2.915-1.326,4.375-1.989c0.001-0.001,0.002-0.001,0.004-0.002c-0.001-0.001-0.001-0.001-0.001-0.001   C191.121,457.032,187.7,452.715,184.38,448.317z" fill="#a03939"/><path d="M430.607,94.224c-18.068,8.047-39.588,15.041-64.396,20.713c-4.313,0.984-7,5.273-6.016,9.578   c0.844,3.711,4.141,6.219,7.789,6.219c0.594,0,1.188-0.063,1.789-0.203c27.146-6.2,50.742-13.954,70.345-22.992   C437.098,102.987,433.922,98.552,430.607,94.224z" fill="#db3f3d"/></g><g transform="matrix(0.13206017156295854 -0.03538541632261026 0.03538541632261026 0.13206017156295854 132.13392763950327 150.25124484049692)" id="L1_59"><path d="M264,445.93V352V232c0-4.418-3.582-8-8-8c-4.418,0-8,3.582-8,8v120v93.93h-25.391   c-2.293,0-4.509-0.322-6.609-0.915v24.915c0,4.422,3.578,8,8,8h24V504c0,4.418,3.582,8,8,8c4.418,0,8-3.582,8-8v-26.07h24   c4.422,0,8-3.578,8-8v-24.915c-2.101,0.593-4.317,0.915-6.609,0.915H264z" fill="#5c546a"/><path d="M439.89,500.617l-20.148-120.914c-2.727-16.359-9.43-32.023-19.391-45.297L320,227.269V349.93   l-6.13,67.747L427,508.179c1.453,1.156,3.227,1.75,5,1.75c1.391,0,2.789-0.359,4.047-1.102   C438.906,507.148,440.437,503.883,439.89,500.617z" fill="#5c546a"/><path d="M192.153,352l-0.122-1.344l-0.017-123.407l-80.366,107.157   c-9.961,13.273-16.664,28.937-19.391,45.297L72.109,500.617c-0.547,3.266,0.984,6.531,3.844,8.211   c1.258,0.742,2.656,1.102,4.047,1.102c1.773,0,3.547-0.594,5-1.75l113.127-90.501L192.153,352L192.153,352z" fill="#5c546a"/><path d="M320,227.269V125.93c0-44.911-26.015-89.408-42.771-113.401   c8.448,12.104,19.231,29.443,27.868,49.399H256V103c17.081,0,30.928,13.847,30.928,30.928c0,17.081-13.847,30.928-30.928,30.928   V224c4.418,0,8,3.582,8,8v120h55.812l-6.523,72.102l0.581-6.425L320,349.93V227.269z" fill="#ff4f19"/><path d="M192.153,352H248V232c0-4.418,3.582-8,8-8v-59.143c-17.081,0-30.928-13.847-30.928-30.928   C225.072,116.847,238.919,103,256,103V61.928h-49.097c8.636-19.956,19.419-37.295,27.868-49.399   C218.015,36.521,192,81.019,192,125.93l0.014,101.32l0.017,123.407L192.153,352z" fill="#e5001e"/><path d="M319.813,352H264v93.93h25.391c2.293,0,4.509-0.322,6.609-0.915   c9.344-2.638,16.364-10.752,17.289-20.913L319.813,352z" fill="#b6b8be"/><path d="M248,445.93V352h-55.847l0,0l0,0l5.973,65.678l0.584,6.423c0.925,10.161,7.945,18.275,17.289,20.913   c2.101,0.593,4.316,0.915,6.609,0.915H248z" fill="#888693"/><circle cx="256" cy="133" r="30" fill="#5c546a"/><path d="M256,61.928V0c-7.711,0-14.992,3.758-19.484,10.055c-0.539,0.755-1.089,1.534-1.649,2.337   c-0.031,0.045-0.064,0.093-0.095,0.137c-8.448,12.104-19.231,29.443-27.868,49.399H256z" fill="#5c546a"/><path d="M305.097,61.928c-8.636-19.956-19.42-37.295-27.868-49.399c-0.031-0.045-0.064-0.093-0.095-0.137   c-0.561-0.802-1.111-1.582-1.649-2.337C270.992,3.758,263.711,0,256,0v61.928H305.097z" fill="#888693"/></g><g transform="matrix(0.18145161867141724 0 0 0.18145161867141724 217.5 217.5)" id="L1_60"><path d="M416,247.647   c0,0.078,0,0.078,0,0.078" fill="none" stroke="#5c546a" stroke-linecap="round" stroke-linejoin="round" stroke-width="0"/><path d="M115.218,108.547c0.336,0.218,0.666,0.443,0.991,0.675c0.024,0.017,0.047,0.033,0.071,0.051   c0.335,0.24,0.664,0.487,0.988,0.741c0.013,0.01,0.025,0.02,0.038,0.03c0.331,0.261,0.656,0.529,0.975,0.804   c0.005,0.004,0.01,0.009,0.015,0.013c0.324,0.281,0.642,0.568,0.953,0.863c0,0,0,0,0,0l0,0c0.825,0.782,1.608,1.609,2.333,2.485   c0.35,0.045,0.702,0.076,1.058,0.076c1.836,0,3.602-0.559,5.117-1.84c3.438-2.801,3.844-7.84,1.039-11.281   c-2.797-3.359-7.836-3.84-11.281-1.039c-2.443,2.093-3.353,5.329-2.597,8.232c0.064,0.04,0.127,0.081,0.19,0.122   C115.146,108.501,115.182,108.523,115.218,108.547z" fill="#5c546a"/><path d="M68.719,180.287c-4.242-1.523-8.797,0.719-10.242,4.875c-1.438,4.242,0.805,8.719,4.961,10.242   c0.883,0.242,1.758,0.398,2.641,0.398c3.281,0,6.398-2.078,7.523-5.359C75.039,186.287,72.875,181.725,68.719,180.287z" fill="#5c546a"/><path d="M142,92.045c1.438,2.637,4.156,4.078,6.961,4.078c1.281,0,2.719-0.32,3.914-1.039   c3.844-2.242,5.203-7.121,2.961-10.961c-2.156-3.84-7.039-5.121-10.875-2.961C141.117,83.323,139.758,88.205,142,92.045z" fill="#5c546a"/><path d="M85.823,156.188c-0.336-0.198-0.667-0.403-0.993-0.614c-0.035-0.022-0.07-0.044-0.104-0.067   c-0.306-0.199-0.607-0.406-0.904-0.616c-0.053-0.038-0.106-0.075-0.159-0.113c-0.284-0.204-0.563-0.413-0.838-0.628   c-0.062-0.048-0.124-0.097-0.186-0.146c-0.266-0.211-0.529-0.425-0.787-0.646c-0.066-0.056-0.132-0.114-0.198-0.171   c-0.251-0.218-0.5-0.44-0.743-0.667c-0.068-0.063-0.133-0.127-0.2-0.191c-0.24-0.228-0.477-0.458-0.708-0.694   c-0.062-0.063-0.122-0.129-0.184-0.193c-0.233-0.242-0.463-0.485-0.687-0.735c-0.009-0.01-0.018-0.019-0.026-0.028   c-2.784,0.033-5.486,1.49-6.948,4.085c-2.156,3.84-0.797,8.719,3.125,10.883c1.195,0.719,2.555,1.039,3.836,1.039   c2.805,0,5.523-1.523,7.039-4.164c0.984-1.811,1.191-3.852,0.741-5.731c-0.36-0.191-0.714-0.391-1.064-0.596   C85.83,156.192,85.826,156.19,85.823,156.188z" fill="#5c546a"/><path d="M57.039,226.686c0.398,0.078,0.797,0.156,1.203,0.156c3.914,0,7.273-2.797,7.914-6.797   c0.719-4.32-2.234-8.484-6.641-9.125c-4.32-0.719-8.477,2.242-9.117,6.641C49.68,221.881,52.641,226.045,57.039,226.686z" fill="#5c546a"/><path d="M105.68,374.045c3.359-2.883,3.68-7.922,0.797-11.281c-2.875-3.359-7.922-3.758-11.281-0.883   c-3.359,2.883-3.68,7.922-0.797,11.281c1.523,1.844,3.758,2.805,6,2.805C102.242,375.967,104.156,375.326,105.68,374.045z" fill="#5c546a"/><path d="M81.758,350.045c1.438,0,2.797-0.398,4.078-1.125c3.844-2.32,5.039-7.195,2.805-10.953   c-2.242-3.844-7.203-5.125-10.961-2.805c-3.844,2.242-5.039,7.125-2.805,10.961C76.398,348.6,79.039,350.045,81.758,350.045z" fill="#5c546a"/><path d="M56.078,258.686c4.477-0.086,8-3.68,7.922-8.086c-0.078-4.477-3.68-8-8.078-7.914   c-4.484,0.078-8,3.68-7.922,8.078s3.68,7.922,8,7.922C56.078,258.686,56.078,258.686,56.078,258.686z" fill="#5c546a"/><path d="M75.359,310.365c-1.602-4.078-6.164-6.164-10.32-4.641c-4.164,1.602-6.242,6.242-4.641,10.32   c1.203,3.195,4.242,5.195,7.438,5.195c0.961,0,1.922-0.156,2.883-0.555C74.797,319.162,76.875,314.522,75.359,310.365z" fill="#5c546a"/><path d="M59.195,290.443c0.484,0,0.961,0,1.523-0.078c4.32-0.883,7.203-5.039,6.398-9.359   c-0.875-4.32-5.039-7.203-9.359-6.406c-4.398,0.805-7.203,5.047-6.398,9.367C52.078,287.803,55.438,290.443,59.195,290.443z" fill="#5c546a"/><path d="M170.398,77.483c1.203,3.281,4.242,5.281,7.602,5.281c0.875,0,1.758-0.16,2.641-0.48   c4.156-1.441,6.32-6.078,4.875-10.238c-1.516-4.16-6.078-6.32-10.234-4.801C171.117,68.682,168.961,73.323,170.398,77.483z" fill="#5c546a"/><path d="M405.359,187.725c1.195,3.195,4.242,5.281,7.516,5.281c0.961,0,1.844-0.164,2.727-0.484   c4.156-1.516,6.32-6.156,4.797-10.32c-1.523-4.156-6.078-6.234-10.242-4.719C406,179.006,403.836,183.561,405.359,187.725z" fill="#5c546a"/><path d="M375.836,123.725c-3.359,2.801-3.758,7.918-0.961,11.277c1.602,1.84,3.844,2.883,6.164,2.883   c1.758,0,3.602-0.641,5.117-1.922c3.359-2.801,3.844-7.84,0.961-11.281h0.078C384.32,121.323,379.281,120.842,375.836,123.725z" fill="#5c546a"/><path d="M352.32,102.123c-2.883,3.359-2.398,8.402,0.961,11.281c1.516,1.199,3.359,1.84,5.195,1.84   c2.242,0,4.484-0.961,6.078-2.879c2.883-3.363,2.406-8.402-0.953-11.281C360.242,98.284,355.195,98.682,352.32,102.123z" fill="#5c546a"/><path d="M420,287.404c0.398,0.078,0.875,0.078,1.359,0.078c3.758,0,7.117-2.719,7.836-6.641   c0.727-4.32-2.156-8.477-6.477-9.195c-4.398-0.805-8.563,2.156-9.281,6.477C412.719,282.522,415.601,286.6,420,287.404z" fill="#5c546a"/><path d="M422.555,223.725c4.32-0.805,7.281-4.961,6.484-9.281c-0.719-4.32-4.883-7.281-9.281-6.477   c-4.32,0.797-7.203,4.875-6.477,9.273c0.719,3.844,4.078,6.563,7.914,6.563C421.601,223.803,422.078,223.803,422.555,223.725z" fill="#5c546a"/><path d="M200.961,68.045c0.719,3.84,4.078,6.637,7.914,6.637c0.484,0,0.883-0.078,1.367-0.078   c4.313-0.801,7.273-4.961,6.555-9.281c-0.797-4.32-4.875-7.277-9.281-6.559C203.195,59.565,200.242,63.643,200.961,68.045z" fill="#5c546a"/><path d="M325.437,84.842c-2.242,3.84-0.961,8.723,2.883,10.961c0-0.078,0-0.078,0-0.078   c1.195,0.801,2.641,1.117,4,1.117c2.719,0,5.438-1.438,6.875-4c2.242-3.758,0.961-8.637-2.875-10.879   C332.476,79.725,327.601,81.002,325.437,84.842z" fill="#5c546a"/><path d="M232.719,64.045c0,4.398,3.602,8,8,8c4.398,0,8-3.602,8-8c0-4.402-3.523-8-7.922-8   C236.32,56.045,232.797,59.565,232.719,64.045z" fill="#5c546a"/><path d="M264.719,65.483c-0.797,4.402,2.078,8.48,6.477,9.281c0.406,0.078,0.883,0.16,1.359,0.16   c3.844,0,7.203-2.719,7.922-6.641c0.719-4.32-2.156-8.48-6.477-9.281C269.601,58.284,265.437,61.162,264.719,65.483z" fill="#5c546a"/><path d="M295.922,72.526c-1.523,4.156,0.555,8.719,4.719,10.238c0.961,0.32,1.836,0.48,2.797,0.48   c3.203,0,6.32-2,7.438-5.199c1.523-4.16-0.555-8.801-4.719-10.32C302,66.205,297.437,68.366,295.922,72.526z" fill="#5c546a"/><path d="M424,239.647c-4.484,0-8,3.594-8,8c0,4.477,3.602,8,8,8s8-3.602,8-8   C432,243.24,428.398,239.647,424,239.647z" fill="#5c546a"/><path d="M399.359,164.045c1.359,0,2.797-0.398,4-1.125c3.836-2.156,5.117-7.117,2.961-10.875   c-2.242-3.84-7.125-5.203-10.961-2.961c-3.844,2.238-5.117,7.121-2.883,10.961C393.922,162.6,396.64,164.045,399.359,164.045z" fill="#5c546a"/><path d="M386.64,359.482c-3.445-2.883-8.484-2.398-11.281,1.039c-2.805,3.359-2.32,8.398,1.039,11.281   c1.523,1.203,3.281,1.844,5.117,1.844c2.32,0,4.563-1.047,6.164-2.883C390.476,367.326,390,362.287,386.64,359.482z" fill="#5c546a"/><path d="M301.359,413.084c-4.164,1.516-6.32,6.078-4.719,10.242c1.195,3.195,4.234,5.195,7.516,5.195   c0.883,0,1.844-0.156,2.719-0.477c4.164-1.523,6.242-6.164,4.727-10.242C310.078,413.647,305.516,411.482,301.359,413.084z" fill="#5c546a"/><path d="M420.64,313.084c1.516-4.164-0.641-8.719-4.805-10.242c-4.156-1.438-8.719,0.641-10.234,4.805   c-1.445,4.156,0.641,8.797,4.797,10.234c0.961,0.32,1.844,0.484,2.719,0.484C416.398,318.365,419.515,316.365,420.64,313.084z" fill="#5c546a"/><path d="M241.437,424.045c-4.398,0-8,3.68-7.922,8.078c0,4.398,3.602,7.922,8,7.922c0,0,0,0,0.086,0   c4.398-0.078,7.914-3.68,7.914-8.078C249.437,427.561,245.836,423.967,241.437,424.045z" fill="#5c546a"/><path d="M395.758,346.287c1.281,0.719,2.641,1.117,4,1.117c2.719,0,5.438-1.438,6.883-4.078h0.078   c2.156-3.766,0.797-8.727-3.039-10.883c-3.844-2.242-8.719-0.883-10.883,2.961C390.555,339.24,391.922,344.123,395.758,346.287z" fill="#5c546a"/><path d="M181.359,414.045c-4.164-1.523-8.719,0.719-10.164,4.875c-1.516,4.164,0.727,8.727,4.883,10.242   c0.883,0.242,1.758,0.398,2.641,0.398c3.281,0,6.398-2,7.523-5.359C187.758,420.123,185.516,415.482,181.359,414.045z" fill="#5c546a"/><path d="M129.438,395.326c2.805-3.359,2.32-8.406-1.117-11.203c-3.359-2.797-8.398-2.32-11.203,1.117   c-2.797,3.359-2.32,8.406,1.039,11.203v0.078c1.523,1.203,3.359,1.766,5.125,1.766   C125.602,398.287,127.836,397.326,129.438,395.326z" fill="#5c546a"/><path d="M271.836,421.162c-4.32,0.805-7.195,4.961-6.398,9.281c0.719,3.844,4.078,6.563,7.922,6.563   c0.398,0,0.883,0,1.359-0.086c4.398-0.875,7.281-5.039,6.477-9.359C280.398,423.24,276.242,420.365,271.836,421.162z" fill="#5c546a"/><path d="M328.961,399.967c-3.844,2.234-5.125,7.117-2.883,10.953c1.523,2.484,4.164,3.922,6.883,3.922   c1.438,0,2.797-0.32,4.078-1.117c3.758-2.242,5.117-7.125,2.883-10.883C337.68,399.006,332.719,397.725,328.961,399.967z" fill="#5c546a"/><path d="M153.602,401.404c-3.844-2.164-8.805-0.805-10.961,3.039c-2.164,3.844-0.805,8.719,3.039,10.883   c1.281,0.719,2.641,1.039,3.922,1.039c2.797,0,5.516-1.445,7.039-4.078C158.797,408.443,157.437,403.561,153.602,401.404z" fill="#5c546a"/><path d="M210.961,421.647c-4.406-0.727-8.484,2.234-9.203,6.555c-0.719,4.398,2.242,8.563,6.563,9.281   c0.477,0.078,0.875,0.078,1.359,0.078c3.836,0,7.195-2.797,7.836-6.719C218.242,426.522,215.281,422.365,210.961,421.647z" fill="#5c546a"/><path d="M353.836,382.287c0-0.086,0-0.086,0-0.086c-3.359,2.883-3.758,7.922-0.875,11.281   c1.516,1.922,3.836,2.883,6.078,2.883c1.836,0,3.68-0.641,5.203-1.922c3.359-2.883,3.758-7.922,0.875-11.281   C362.242,379.803,357.195,379.404,353.836,382.287z" fill="#5c546a"/><path d="M274.555,108.205c-4.313-1.043-8.633,1.598-9.68,5.84c-1.039,4.32,1.602,8.637,5.844,9.68   c0.641,0.16,1.281,0.238,1.922,0.238c3.602,0,6.875-2.398,7.758-6.078C281.437,113.643,278.797,109.244,274.555,108.205z" fill="#5c546a"/><path d="M150.961,156.045c3.195-3.043,3.281-8.16,0.234-11.281c-3.117-3.199-8.156-3.281-11.359-0.16v-0.078   c-3.195,3.117-3.281,8.156-0.156,11.359c1.516,1.598,3.68,2.48,5.758,2.48C147.437,158.366,149.437,157.565,150.961,156.045z" fill="#5c546a"/><path d="M289.281,382.842c0.961,0,1.914-0.156,2.875-0.555c4.164-1.602,6.164-6.242,4.563-10.32   c-1.602-4.164-6.242-6.164-10.32-4.563c-4.156,1.602-6.156,6.242-4.563,10.32C283.039,380.92,286.078,382.842,289.281,382.842z" fill="#5c546a"/><path d="M137.359,345.24c1.836,0,3.68-0.641,5.195-1.914c3.367-2.961,3.687-8,0.805-11.359   c-2.883-3.281-7.922-3.68-11.281-0.727c-3.359,2.883-3.68,7.922-0.797,11.281C132.875,344.287,135.117,345.24,137.359,345.24z" fill="#5c546a"/><path d="M204.555,124.682c0.727,0,1.445-0.078,2.086-0.238c4.32-1.199,6.797-5.602,5.68-9.84   c-1.125-4.238-5.523-6.801-9.844-5.602c-4.234,1.121-6.797,5.523-5.602,9.762C197.836,122.366,201.039,124.682,204.555,124.682z" fill="#5c546a"/><path d="M172.875,137.725c1.367,0,2.641-0.32,3.922-1.043c3.844-2.156,5.203-7.039,3.039-10.879   c-2.234-3.84-7.117-5.199-10.961-3.039c-3.836,2.238-5.195,7.121-2.953,10.961C167.359,136.283,170.078,137.725,172.875,137.725z" fill="#5c546a"/><path d="M130.797,181.241c2.32-3.758,1.125-8.719-2.641-10.953c-3.836-2.32-8.719-1.203-11.039,2.633   c-2.32,3.766-1.117,8.641,2.641,10.961c1.281,0.805,2.719,1.203,4.164,1.203C126.641,185.084,129.281,183.725,130.797,181.241z" fill="#5c546a"/><path d="M238.641,120.045c4.398,0,8-3.68,7.914-8.082c0-4.398-3.68-7.918-8.078-7.918   c-4.398,0.078-7.922,3.68-7.922,8.078c0.086,4.402,3.602,7.922,8,7.922H238.641z" fill="#5c546a"/><path d="M308.476,121.323h-0.078c-3.844-2.078-8.719-0.641-10.797,3.203   c-2.086,3.918-0.641,8.797,3.195,10.879c1.203,0.641,2.563,0.961,3.844,0.961c2.797,0,5.602-1.523,7.039-4.16   C313.758,128.283,312.32,123.405,308.476,121.323z" fill="#5c546a"/><path d="M103.758,250.123c0.164,0.078,0.242,0.078,0.32,0.078c4.32,0,7.844-3.438,8-7.68   c0.242-4.398-3.203-8.156-7.602-8.398c-4.398-0.156-8.156,3.281-8.398,7.68h0.078C95.922,246.201,99.359,249.967,103.758,250.123z" fill="#5c546a"/><path d="M359.601,313.404c1.039,0.477,2.234,0.719,3.359,0.719c3.039,0,5.914-1.68,7.281-4.563   c1.836-4,0.156-8.719-3.844-10.641c-4-1.914-8.719-0.156-10.641,3.844C353.836,306.686,355.601,311.482,359.601,313.404z" fill="#5c546a"/><path d="M361.68,208.123c1.039,3.359,4.156,5.523,7.516,5.523c0.883,0,1.68-0.164,2.563-0.406   c4.164-1.359,6.484-5.914,5.117-10.078c-1.438-4.242-5.914-6.477-10.156-5.117C362.555,199.404,360.242,203.881,361.68,208.123z" fill="#5c546a"/><path d="M383.68,238.842v-0.078c-0.242-4.398-4.078-7.758-8.484-7.438c-4.398,0.234-7.758,4.078-7.438,8.477   c0.242,4.242,3.758,7.523,7.922,7.523c0.242,0,0.398,0,0.563-0.086C380.64,247.006,384,243.24,383.68,238.842z" fill="#5c546a"/><path d="M373.601,281.561c3.758,0,7.117-2.719,7.836-6.555c0.883-4.32-2-8.484-6.32-9.359   c-4.398-0.805-8.563,2.078-9.359,6.398s2,8.555,6.398,9.359C372.64,281.483,373.117,281.561,373.601,281.561z" fill="#5c546a"/><path d="M358.797,181.405c3.758-2.398,4.805-7.359,2.484-11.117v0.078   c-2.406-3.766-7.359-4.805-11.125-2.484c-3.68,2.406-4.719,7.359-2.398,11.125c1.523,2.32,4.078,3.68,6.719,3.68   C356,182.686,357.515,182.201,358.797,181.405z" fill="#5c546a"/><path d="M338.398,329.881c0,0.086,0,0.086,0,0.086c-2.883,3.359-2.398,8.398,1.039,11.195   c1.438,1.281,3.281,1.922,5.117,1.922c2.242,0,4.563-1.039,6.086-2.883c2.875-3.438,2.398-8.477-0.961-11.281   C346.242,326.045,341.195,326.522,338.398,329.881z" fill="#5c546a"/><path d="M106.961,284.365c0.555,0,1.039-0.078,1.594-0.164c4.406-0.961,7.125-5.195,6.242-9.516   c-0.961-4.32-5.195-7.125-9.516-6.164c-4.32,0.883-7.125,5.125-6.164,9.523C99.922,281.725,103.195,284.365,106.961,284.365z" fill="#5c546a"/><path d="M185.836,373.084c-1.516,4.156,0.641,8.719,4.805,10.242c0.875,0.398,1.836,0.555,2.719,0.555   c3.281,0,6.32-2.078,7.516-5.281c1.523-4.156-0.633-8.797-4.719-10.234C192,366.842,187.359,368.92,185.836,373.084z" fill="#5c546a"/><path d="M109.836,216.365c3.445,0,6.641-2.242,7.68-5.68c1.281-4.242-1.117-8.719-5.359-10   c-4.156-1.281-8.641,1.117-9.914,5.359c-1.281,4.156,1.039,8.641,5.273,10C108.32,216.201,109.117,216.365,109.836,216.365z" fill="#5c546a"/><path d="M326.641,142.924c-3.039,3.199-2.805,8.32,0.398,11.281c1.516,1.438,3.516,2.16,5.438,2.16   c2.164,0,4.32-0.883,5.844-2.563c3.039-3.277,2.875-8.32-0.398-11.277C334.719,139.483,329.601,139.643,326.641,142.924z" fill="#5c546a"/><path d="M118.242,316.764c1.195,0,2.477-0.32,3.594-0.883c3.922-2,5.523-6.797,3.602-10.719   c-2-3.922-6.797-5.602-10.719-3.602c-4,2-5.602,6.805-3.602,10.727C112.477,315.084,115.359,316.764,118.242,316.764z" fill="#5c546a"/><path d="M314.719,351.967c-3.523,2.555-4.398,7.594-1.758,11.117c1.516,2.242,4,3.359,6.477,3.359   c1.602,0,3.281-0.477,4.641-1.523c3.602-2.555,4.398-7.594,1.844-11.117C323.359,350.201,318.32,349.404,314.719,351.967z" fill="#5c546a"/><path d="M156.32,355.561c-2.484,3.602-1.602,8.641,2.078,11.125c1.359,0.961,2.961,1.438,4.477,1.438   c2.563,0,5.047-1.203,6.641-3.523c2.484-3.594,1.602-8.555-2.078-11.117C163.836,351.006,158.797,351.881,156.32,355.561z" fill="#5c546a"/><path d="M24.078,308.045c-1.117-4.242-5.523-6.805-9.836-5.602c-4.242,1.203-6.727,5.602-5.523,9.844   c0.961,3.516,4.156,5.914,7.68,5.914c0.719,0,1.438-0.156,2.156-0.32C22.797,316.686,25.281,312.287,24.078,308.045z" fill="#5c546a"/><path d="M228.477,24.283c0.164,0,0.32,0,0.398,0c4.406-0.16,7.844-3.918,7.602-8.32   c-0.156-4.48-3.922-7.84-8.32-7.598c-4.477,0.16-7.836,3.918-7.68,8.316C220.719,21.002,224.242,24.283,228.477,24.283z" fill="#5c546a"/><path d="M373.758,68.284c1.359,1.121,3.039,1.602,4.719,1.602c2.484,0,4.883-1.121,6.484-3.203   c2.555-3.52,1.836-8.559-1.68-11.199c-3.523-2.641-8.563-1.918-11.203,1.602C369.437,60.682,370.156,65.725,373.758,68.284z" fill="#5c546a"/><path d="M196.797,28.045c0.484,0,0.961,0,1.445-0.16c4.313-0.801,7.195-4.961,6.398-9.281   c-0.805-4.398-5.039-7.199-9.359-6.398c-4.32,0.797-7.203,5.039-6.406,9.359C189.602,25.405,192.961,28.045,196.797,28.045z" fill="#5c546a"/><path d="M34.398,337.162c-1.758-4.078-6.477-5.922-10.477-4.156c-4.086,1.758-5.922,6.477-4.164,10.477   c1.281,3.039,4.242,4.883,7.281,4.883c1.117,0,2.156-0.242,3.203-0.719C34.32,345.881,36.156,341.162,34.398,337.162z" fill="#5c546a"/><path d="M317.836,458.123c-4.156,1.523-6.234,6.164-4.719,10.32c1.203,3.203,4.242,5.203,7.523,5.203   c0.875,0,1.836-0.164,2.797-0.484c4.078-1.602,6.242-6.156,4.719-10.32C326.641,458.686,322,456.6,317.836,458.123z" fill="#5c546a"/><path d="M226.797,471.647c-4.398-0.242-8.156,3.117-8.398,7.516s3.117,8.242,7.523,8.484   c0.156,0,0.234,0,0.398,0c4.234,0,7.758-3.281,8-7.523C234.555,475.725,231.195,471.881,226.797,471.647z" fill="#5c546a"/><path d="M347.758,51.643c1.203,0.641,2.563,0.961,3.844,0.961c2.797,0,5.594-1.52,7.039-4.16   c2.078-3.84,0.719-8.719-3.125-10.801c-3.914-2.16-8.797-0.801-10.875,3.121C342.476,44.604,343.922,49.483,347.758,51.643z" fill="#5c546a"/><path d="M257.68,471.326c-4.398,0.398-7.68,4.234-7.281,8.641c0.242,4.156,3.758,7.359,7.922,7.359   c0.234,0,0.398,0,0.641,0c4.398-0.406,7.68-4.242,7.359-8.641S262.078,471.006,257.68,471.326z" fill="#5c546a"/><path d="M9.195,223.006c0.406,0.078,0.727,0.078,1.125,0.078c3.922,0,7.359-2.883,7.922-6.883   c0.633-4.398-2.406-8.398-6.805-9.039s-8.398,2.398-9.039,6.805C1.758,218.287,4.797,222.365,9.195,223.006z" fill="#5c546a"/><path d="M7.922,254.92c4.477,0,8.078-3.516,8.078-7.914c0-4.484-3.523-8-7.922-8.086   c-4.477,0-8.078,3.602-8.078,8C0,251.326,3.516,254.92,7.922,254.92z" fill="#5c546a"/><path d="M11.039,286.764c4.398-0.563,7.516-4.562,6.883-8.961c-0.563-4.398-4.563-7.438-8.961-6.883   c-4.406,0.563-7.445,4.563-6.883,8.961c0.563,4.086,4,6.961,7.922,6.961C10.398,286.842,10.719,286.842,11.039,286.764z" fill="#5c546a"/><path d="M424,114.682c1.68,0,3.359-0.559,4.797-1.68c3.523-2.719,4.164-7.758,1.523-11.199   c-2.719-3.52-7.766-4.16-11.281-1.52c-3.438,2.719-4.078,7.762-1.438,11.281C419.195,113.565,421.515,114.682,424,114.682z" fill="#5c546a"/><path d="M37.68,361.881c-3.844,2.32-5.039,7.203-2.719,10.961c1.516,2.484,4.156,3.844,6.875,3.844   c1.359,0,2.805-0.32,4.164-1.125c3.758-2.32,4.961-7.273,2.641-11.039C46.32,360.764,41.438,359.561,37.68,361.881z" fill="#5c546a"/><path d="M402.797,90.682c2,0,4.078-0.797,5.68-2.316c3.039-3.203,3.039-8.242-0.078-11.363   c-3.203-3.117-8.242-3.039-11.359,0.082c-3.117,3.199-3.039,8.238,0.078,11.359C398.719,89.963,400.719,90.682,402.797,90.682z" fill="#5c546a"/><path d="M346,445.404c-3.922,2.078-5.359,6.961-3.281,10.883c1.438,2.633,4.242,4.156,7.117,4.156   c1.203,0,2.563-0.32,3.766-0.961c3.836-2.078,5.359-6.961,3.195-10.797C354.719,444.764,349.836,443.326,346,445.404z" fill="#5c546a"/><path d="M111.602,431.647c-3.602-2.563-8.563-1.68-11.125,1.914c-2.555,3.68-1.68,8.641,2,11.203   c1.359,0.961,2.961,1.438,4.563,1.438c2.477,0,4.961-1.195,6.563-3.438C116.156,439.162,115.195,434.201,111.602,431.647z" fill="#5c546a"/><path d="M372.078,428.92c-3.523,2.641-4.32,7.602-1.68,11.203c1.523,2.164,4,3.281,6.398,3.281   c1.68,0,3.281-0.484,4.719-1.523c3.602-2.641,4.406-7.68,1.766-11.195C380.64,427.084,375.68,426.365,372.078,428.92z" fill="#5c546a"/><path d="M441.68,141.244c1.359,0,2.719-0.32,3.922-1.039c3.836-2.16,5.195-7.043,3.039-10.883   c-2.242-3.84-7.125-5.199-10.961-2.957c-3.844,2.16-5.203,7.039-2.961,10.879C436.156,139.803,438.875,141.244,441.68,141.244z" fill="#5c546a"/><path d="M457.515,194.444c0.883,3.68,4.242,6.078,7.844,6.078c0.563,0,1.195-0.078,1.836-0.234   c4.32-1.047,6.961-5.367,5.922-9.688c-1.117-4.234-5.438-6.875-9.68-5.836C459.117,185.803,456.476,190.123,457.515,194.444z" fill="#5c546a"/><path d="M138.078,447.561c-3.922-2-8.797-0.477-10.797,3.445c-2,3.914-0.484,8.797,3.516,10.797   c1.125,0.563,2.398,0.883,3.602,0.883c2.883,0,5.68-1.602,7.117-4.398C143.516,454.365,142,449.561,138.078,447.561z" fill="#5c546a"/><path d="M448.156,165.084c-0.078,0-0.078,0-0.078,0c1.281,3.117,4.32,5.039,7.438,5.039   c1.039,0,2-0.242,2.961-0.563c4.164-1.68,6.164-6.32,4.484-10.477c-1.602-4.082-6.242-6.082-10.406-4.402   C448.476,156.283,446.476,160.92,448.156,165.084z" fill="#5c546a"/><path d="M55.281,388.6c-3.445,2.805-4,7.844-1.203,11.281c1.602,1.922,3.922,2.883,6.242,2.883   c1.758,0,3.516-0.563,5.039-1.758c3.438-2.805,3.922-7.844,1.117-11.281C63.68,386.287,58.641,385.803,55.281,388.6z" fill="#5c546a"/><path d="M14.797,191.483c0.719,0.242,1.445,0.32,2.164,0.32c3.516,0,6.719-2.242,7.758-5.758   c1.203-4.242-1.281-8.719-5.523-9.922c-4.234-1.203-8.641,1.203-9.914,5.523C8.078,185.881,10.555,190.287,14.797,191.483z" fill="#5c546a"/><path d="M259.758,24.924c0.242,0,0.484,0,0.719,0c4.078,0,7.602-3.121,8-7.281   c0.32-4.398-2.875-8.32-7.281-8.641c-4.398-0.398-8.32,2.801-8.719,7.281C252.078,20.604,255.359,24.526,259.758,24.924z" fill="#5c546a"/><path d="M473.213,224.076c0.148,0.007,0.295,0.022,0.442,0.033c0.251,0.017,0.502,0.032,0.751,0.057   c0.188,0.019,0.372,0.046,0.559,0.069c0.206,0.025,0.413,0.048,0.617,0.078c0.209,0.031,0.416,0.071,0.623,0.108   c0.176,0.031,0.354,0.059,0.529,0.094c0.228,0.046,0.452,0.099,0.677,0.151c0.151,0.035,0.303,0.067,0.453,0.104   c0.241,0.061,0.479,0.129,0.717,0.196c0.043,0.012,0.087,0.023,0.13,0.036c0.065-0.573,0.073-1.162,0.009-1.761   c-0.477-4.398-4.398-7.594-8.719-7.117c-4.484,0.398-7.602,4.32-7.203,8.719c0.032,0.331,0.092,0.652,0.164,0.97   c2.79-1.136,5.84-1.766,9.039-1.766C472.407,224.045,472.811,224.056,473.213,224.076z" fill="#5c546a"/><path d="M466.797,297.881c-4.32-1.117-8.641,1.445-9.758,5.766c-1.117,4.234,1.516,8.641,5.758,9.68   c0.719,0.234,1.359,0.32,2,0.32c3.602,0,6.805-2.406,7.758-6.086C473.601,303.326,471.039,298.92,466.797,297.881z" fill="#5c546a"/><path d="M427.601,384.764c-3.445-2.719-8.484-2.164-11.203,1.359c-2.719,3.438-2.156,8.477,1.359,11.203   c1.438,1.195,3.203,1.758,4.883,1.758c2.398,0,4.719-1.039,6.32-3.117C431.68,392.522,431.117,387.482,427.601,384.764z" fill="#5c546a"/><path d="M76.32,412.686c-3.039,3.195-2.805,8.234,0.398,11.281c1.523,1.438,3.523,2.156,5.438,2.156   c2.164,0,4.32-0.883,5.922-2.563c2.961-3.273,2.719-8.32-0.477-11.359C84.398,409.24,79.281,409.404,76.32,412.686z" fill="#5c546a"/><path d="M395.758,409.084c-3.203,3.039-3.281,8.078-0.242,11.281c1.602,1.602,3.68,2.477,5.766,2.477   c2,0,4-0.797,5.516-2.32c3.203-3.039,3.281-8.078,0.242-11.281C403.922,406.045,398.875,405.967,395.758,409.084z" fill="#5c546a"/><path d="M457.758,328.6c-4.078-1.758-8.719,0.242-10.398,4.32c-1.68,4.086,0.242,8.805,4.32,10.484   c1.039,0.398,2.078,0.563,3.039,0.563c3.203,0,6.156-1.844,7.438-4.961C463.836,334.92,461.836,330.201,457.758,328.6z" fill="#5c546a"/><path d="M463.425,270.462c-0.451,0.865-0.759,1.826-0.871,2.865c-0.477,4.32,2.727,8.32,7.125,8.797   c0.242,0.078,0.563,0.078,0.875,0.078c4,0,7.523-3.039,7.922-7.117c0.146-1.33-0.042-2.621-0.491-3.792   c-1.914,0.491-3.919,0.753-5.986,0.753C468.978,272.045,466.089,271.481,463.425,270.462z" fill="#5c546a"/><path d="M444.64,357.725c-3.844-2.242-8.719-0.961-10.883,2.875c-2.242,3.844-0.961,8.727,2.797,10.961   c1.281,0.727,2.727,1.039,4.086,1.039c2.719,0,5.438-1.438,6.875-4C449.758,364.842,448.476,359.881,444.64,357.725z" fill="#5c546a"/><path d="M196.242,467.803c0-0.078,0-0.078,0-0.078c-4.406-0.805-8.563,2-9.445,6.32   c-0.875,4.32,2,8.555,6.32,9.438c0.484,0.078,1.039,0.078,1.523,0.164c3.758,0,7.117-2.641,7.836-6.484   C203.359,472.842,200.555,468.6,196.242,467.803z" fill="#5c546a"/><path d="M165.836,36.123c0.805,0,1.68-0.078,2.563-0.398c4.156-1.441,6.398-5.922,5.039-10.16   c-1.438-4.16-6-6.402-10.156-4.961c-4.164,1.359-6.484,5.922-5.039,10.078C159.359,34.045,162.477,36.123,165.836,36.123z" fill="#5c546a"/><path d="M24.719,161.084c1.039,0.477,2.156,0.719,3.203,0.719c3.117,0,6-1.758,7.359-4.801   c1.758-4-0.086-8.719-4.086-10.559c-4.078-1.762-8.797,0.082-10.555,4.082C18.797,154.604,20.641,159.323,24.719,161.084z" fill="#5c546a"/><path d="M83.758,84.526c1.922,0,3.844-0.641,5.359-2.082c3.281-2.961,3.523-8,0.563-11.281   c-3.039-3.277-8.078-3.52-11.359-0.48c-3.281,2.961-3.523,8-0.484,11.281C79.359,83.643,81.516,84.526,83.758,84.526z" fill="#5c546a"/><path d="M56.477,105.803c1.523,1.281,3.359,1.84,5.125,1.84c2.32,0,4.641-0.961,6.234-2.879   c2.805-3.359,2.32-8.398-1.117-11.281c-3.359-2.801-8.398-2.32-11.203,1.043C52.641,97.963,53.117,103.002,56.477,105.803z" fill="#5c546a"/><path d="M38.719,132.366c1.281,0.797,2.719,1.199,4.156,1.199c2.727,0,5.281-1.359,6.805-3.762   c2.398-3.758,1.195-8.719-2.563-11.039c-3.68-2.32-8.641-1.199-10.961,2.559C33.758,125.084,34.961,130.045,38.719,132.366z" fill="#5c546a"/><path d="M166.398,459.647c-4.156-1.445-8.719,0.797-10.156,4.953c-1.445,4.164,0.719,8.727,4.953,10.242   c0.883,0.242,1.766,0.398,2.563,0.398c3.359,0,6.398-2.078,7.602-5.359C172.797,465.647,170.641,461.162,166.398,459.647z" fill="#5c546a"/><path d="M136.32,48.444c1.195,0,2.398-0.238,3.602-0.879c3.914-1.922,5.516-6.801,3.516-10.723   c-1.922-3.918-6.719-5.52-10.719-3.598v0.078c-3.922,1.922-5.523,6.723-3.523,10.723C130.555,46.842,133.438,48.444,136.32,48.444z   " fill="#5c546a"/><path d="M319.758,38.682c0.961,0.32,1.922,0.48,2.883,0.48c3.195,0,6.234-1.918,7.438-5.117   c1.602-4.16-0.477-8.801-4.563-10.32c-4.156-1.602-8.797,0.48-10.32,4.641C313.601,32.444,315.68,37.084,319.758,38.682z" fill="#5c546a"/><path d="M108.797,64.682c1.523,0,3.125-0.477,4.484-1.438c3.68-2.48,4.555-7.441,2.078-11.121   c-2.484-3.598-7.438-4.559-11.117-2c-3.602,2.48-4.563,7.441-2.086,11.121C103.758,63.483,106.242,64.682,108.797,64.682z" fill="#5c546a"/><path d="M288.242,466.842c-4.32,0.961-7.047,5.203-6.086,9.523c0.805,3.758,4.086,6.32,7.766,6.32   c0.555,0,1.195-0.086,1.758-0.242c4.32-0.961,7.039-5.203,6.078-9.523S292.555,465.881,288.242,466.842z" fill="#5c546a"/><path d="M290.242,29.725c0.633,0.16,1.195,0.16,1.836,0.16c3.602,0,6.883-2.48,7.758-6.16   c0.961-4.32-1.68-8.641-6-9.602s-8.641,1.68-9.594,6C283.281,24.444,285.922,28.682,290.242,29.725z" fill="#5c546a"/><path d="M261.285,162.643c14.947,3.72,28.381,11.267,39.214,21.531c-3.488-0.42-7.031-0.662-10.632-0.662   c-48.601,0-88,39.399-88,88c0,25.158,10.575,47.833,27.501,63.871c-28.588-3.446-52.96-20.588-66.346-44.676   c15.017,27.038,43.858,45.338,76.979,45.338c48.601,0,88-39.399,88-88C328,206.784,299.601,172.162,261.285,162.643z" fill="#708aff"/><path d="M229.367,335.383c-16.926-16.038-27.501-38.713-27.501-63.871c0-48.601,39.399-88,88-88   c3.601,0,7.144,0.242,10.632,0.662c-10.833-10.264-24.267-17.811-39.214-21.531c-0.034-0.008-0.068-0.016-0.102-0.025   c-1.316-0.326-2.643-0.622-3.982-0.887c-0.066-0.013-0.133-0.025-0.2-0.038c-1.316-0.258-2.641-0.488-3.977-0.686   c-0.084-0.012-0.168-0.023-0.252-0.035c-1.328-0.193-2.665-0.359-4.011-0.493c-0.082-0.008-0.165-0.014-0.247-0.022   c-1.357-0.13-2.722-0.233-4.097-0.301c-0.056-0.003-0.112-0.004-0.168-0.006c-1.408-0.067-2.823-0.104-4.248-0.104   c-48.601,0-88,39.399-88,88c0,1.324,0.035,2.64,0.093,3.95c0.005,0.118,0.008,0.237,0.013,0.354c0.06,1.248,0.15,2.487,0.262,3.72   c0.016,0.171,0.029,0.343,0.046,0.515c0.116,1.204,0.258,2.399,0.422,3.588c0.026,0.188,0.052,0.376,0.079,0.564   c0.171,1.184,0.365,2.361,0.583,3.53c0.032,0.173,0.066,0.346,0.1,0.52c0.229,1.187,0.479,2.366,0.754,3.536   c0.031,0.13,0.064,0.259,0.095,0.389c0.292,1.214,0.606,2.42,0.948,3.615c0.013,0.044,0.027,0.088,0.04,0.133   c0.724,2.51,1.556,4.973,2.492,7.385c0.018,0.046,0.034,0.092,0.052,0.137c0.46,1.179,0.946,2.345,1.454,3.498   c0.03,0.069,0.06,0.138,0.09,0.207c0.51,1.148,1.043,2.283,1.6,3.405c0.029,0.059,0.059,0.118,0.088,0.178   c0.569,1.14,1.161,2.267,1.778,3.379c0.011,0.02,0.022,0.039,0.033,0.059C176.408,314.795,200.779,331.937,229.367,335.383z" fill="#3d6edd"/><path d="M119.25,111.722c-1.11-0.134-2.237-0.211-3.383-0.211c-15.464,0-28,12.536-28,28   c0,8.005,3.365,15.22,8.75,20.323c-3.897-0.47-7.548-1.74-10.783-3.64c0.35,0.206,0.704,0.406,1.064,0.596   c3.91,2.075,8.368,3.254,13.102,3.254c15.464,0,28-12.536,28-28c0-6.778-2.409-12.993-6.417-17.837   C120.858,113.331,120.075,112.504,119.25,111.722z" fill="#ffedb9"/><path d="M74.302,143.169c0.085,0.195,0.174,0.388,0.263,0.581c0.095,0.207,0.19,0.413,0.29,0.617   c0.088,0.179,0.181,0.355,0.273,0.532c0.11,0.212,0.218,0.424,0.333,0.633c0.085,0.155,0.176,0.306,0.264,0.459   c0.13,0.226,0.258,0.453,0.394,0.674c0.058,0.095,0.121,0.187,0.18,0.281c0.61,0.967,1.273,1.898,1.994,2.78   c0.003,0.003,0.005,0.007,0.008,0.01c0.224,0.274,0.455,0.541,0.688,0.806c0.039,0.045,0.076,0.092,0.116,0.136   c0.009,0.01,0.018,0.019,0.026,0.028c0.224,0.25,0.454,0.494,0.687,0.735c0.062,0.064,0.122,0.13,0.184,0.193   c0.231,0.236,0.469,0.466,0.708,0.694c0.067,0.064,0.133,0.128,0.2,0.191c0.243,0.227,0.492,0.448,0.743,0.667   c0.066,0.057,0.131,0.115,0.198,0.171c0.258,0.22,0.521,0.435,0.787,0.646c0.062,0.049,0.124,0.098,0.186,0.146   c0.276,0.214,0.555,0.424,0.838,0.628c0.053,0.038,0.106,0.075,0.159,0.113c0.297,0.211,0.599,0.417,0.904,0.616   c0.035,0.023,0.07,0.044,0.104,0.067c0.327,0.211,0.657,0.417,0.993,0.614c0.004,0.002,0.007,0.004,0.011,0.006   c3.235,1.901,6.886,3.17,10.783,3.64c-5.386-5.103-8.75-12.318-8.75-20.323c0-15.464,12.536-28,28-28   c1.146,0,2.273,0.077,3.383,0.211l0,0c0,0,0,0,0,0c-0.311-0.295-0.629-0.583-0.953-0.863c-0.005-0.004-0.01-0.009-0.015-0.013   c-0.319-0.275-0.644-0.543-0.975-0.804c-0.013-0.01-0.025-0.02-0.038-0.03c-0.323-0.254-0.653-0.501-0.988-0.741   c-0.024-0.017-0.047-0.034-0.071-0.051c-0.325-0.232-0.656-0.457-0.991-0.675c-0.036-0.023-0.072-0.046-0.108-0.069   c-0.326-0.209-0.656-0.413-0.99-0.609c-0.05-0.029-0.1-0.057-0.15-0.086c-0.323-0.187-0.65-0.368-0.982-0.542   c-0.067-0.035-0.135-0.069-0.202-0.103c-0.318-0.164-0.638-0.323-0.963-0.474c-0.086-0.04-0.174-0.078-0.26-0.118   c-0.311-0.141-0.623-0.279-0.939-0.409c-0.105-0.043-0.212-0.083-0.318-0.125c-0.302-0.12-0.604-0.237-0.911-0.346   c-0.128-0.046-0.258-0.087-0.387-0.131c-0.29-0.099-0.58-0.196-0.874-0.285c-0.151-0.046-0.304-0.086-0.456-0.13   c-0.277-0.079-0.554-0.158-0.834-0.229c-0.176-0.044-0.355-0.082-0.533-0.123c-0.261-0.06-0.522-0.122-0.786-0.175   c-0.204-0.041-0.411-0.074-0.617-0.11c-0.242-0.043-0.484-0.089-0.728-0.126c-0.237-0.035-0.477-0.061-0.716-0.091   c-0.218-0.027-0.435-0.059-0.654-0.08c-0.288-0.029-0.578-0.046-0.868-0.066c-0.175-0.012-0.349-0.03-0.525-0.039   c-0.469-0.023-0.94-0.036-1.414-0.036c-15.464,0-28,12.536-28,28c0,0.466,0.013,0.929,0.035,1.39   c0.008,0.154,0.022,0.305,0.032,0.458c0.02,0.305,0.04,0.611,0.069,0.914c0.018,0.183,0.043,0.365,0.064,0.547   c0.032,0.269,0.063,0.538,0.102,0.805c0.028,0.193,0.063,0.385,0.095,0.576c0.043,0.253,0.086,0.505,0.135,0.755   c0.039,0.198,0.083,0.394,0.126,0.59c0.053,0.24,0.107,0.48,0.166,0.718c0.05,0.2,0.103,0.399,0.157,0.597   c0.062,0.229,0.126,0.458,0.194,0.685c0.06,0.201,0.123,0.402,0.188,0.602c0.071,0.219,0.145,0.436,0.221,0.653   c0.072,0.203,0.144,0.405,0.22,0.606c0.078,0.208,0.16,0.413,0.244,0.618C74.131,142.763,74.215,142.967,74.302,143.169z" fill="#ffd586"/><path d="M496,248.045c0-7.259-3.227-13.76-8.319-18.161c0.279,0.241,0.552,0.488,0.819,0.741   c-0.951-0.115-1.918-0.181-2.9-0.181c-13.255,0-24,10.745-24,24c0,6.861,2.884,13.045,7.5,17.419   c-3.705-0.447-7.149-1.738-10.137-3.673c1.395,0.904,2.888,1.668,4.462,2.271c2.664,1.02,5.552,1.583,8.574,1.583   c2.067,0,4.072-0.262,5.986-0.753C488.344,268.633,496,259.233,496,248.045z" fill="#ff7400"/><path d="M469.1,271.865c-4.616-4.374-7.5-10.558-7.5-17.419c0-13.255,10.745-24,24-24   c0.982,0,1.948,0.066,2.9,0.181c-0.267-0.253-0.54-0.5-0.819-0.741c-0.003-0.003-0.006-0.005-0.009-0.008   c-0.274-0.237-0.554-0.467-0.838-0.691c-0.01-0.008-0.021-0.016-0.031-0.025c-0.278-0.218-0.561-0.43-0.848-0.636   c-0.02-0.014-0.039-0.028-0.059-0.042c-0.28-0.199-0.563-0.392-0.852-0.579c-0.03-0.02-0.061-0.039-0.092-0.059   c-0.279-0.18-0.563-0.354-0.85-0.522c-0.042-0.025-0.085-0.049-0.128-0.073c-0.277-0.16-0.558-0.316-0.842-0.465   c-0.057-0.03-0.114-0.058-0.171-0.088c-0.273-0.141-0.549-0.277-0.828-0.408c-0.072-0.034-0.146-0.066-0.219-0.099   c-0.267-0.122-0.536-0.24-0.808-0.352c-0.09-0.037-0.181-0.071-0.272-0.107c-0.259-0.103-0.519-0.203-0.783-0.297   c-0.109-0.039-0.22-0.074-0.329-0.111c-0.249-0.085-0.498-0.168-0.751-0.245c-0.086-0.026-0.174-0.05-0.261-0.075   c-0.043-0.012-0.087-0.023-0.13-0.036c-0.238-0.068-0.476-0.136-0.717-0.196c-0.15-0.038-0.302-0.07-0.453-0.104   c-0.225-0.052-0.45-0.105-0.677-0.151c-0.175-0.035-0.353-0.063-0.529-0.094c-0.207-0.037-0.414-0.076-0.623-0.108   c-0.204-0.031-0.411-0.053-0.617-0.078c-0.186-0.023-0.371-0.05-0.559-0.069c-0.249-0.025-0.5-0.04-0.751-0.057   c-0.148-0.01-0.294-0.025-0.442-0.033c-0.402-0.02-0.806-0.031-1.213-0.031c-3.198,0-6.248,0.631-9.039,1.766   C454.187,229.382,448,237.989,448,248.045c0,0.723,0.038,1.436,0.1,2.142c0.006,0.063,0.008,0.128,0.015,0.191   c0.065,0.672,0.162,1.333,0.281,1.988c0.017,0.091,0.031,0.182,0.049,0.273c0.124,0.638,0.275,1.266,0.448,1.884   c0.027,0.096,0.054,0.192,0.082,0.288c0.181,0.615,0.384,1.22,0.612,1.813c0.033,0.086,0.068,0.172,0.102,0.258   c0.239,0.601,0.498,1.192,0.782,1.769c0.03,0.06,0.061,0.119,0.091,0.179c0.302,0.599,0.624,1.185,0.973,1.754   c0.009,0.015,0.02,0.03,0.029,0.045c0.737,1.194,1.576,2.319,2.505,3.362c0.012,0.014,0.024,0.028,0.037,0.042   c0.456,0.51,0.935,0.999,1.433,1.468c0.025,0.024,0.05,0.048,0.076,0.072c0.496,0.464,1.013,0.907,1.547,1.328   c0.026,0.021,0.053,0.042,0.079,0.062c0.543,0.424,1.103,0.825,1.682,1.202c0.014,0.009,0.028,0.018,0.041,0.027   C461.951,270.127,465.395,271.418,469.1,271.865z" fill="#d55a00"/><path d="M237.1,407.864c-3.704-0.447-7.148-1.737-10.135-3.672   C229.952,406.129,233.395,407.418,237.1,407.864z" fill="#ffd042"/><path d="M264,384.045c0-0.294-0.012-0.585-0.022-0.876c-0.004-0.113-0.003-0.227-0.009-0.339   c-0.338-6.767-3.482-12.791-8.289-16.945c0.279,0.241,0.552,0.488,0.819,0.741c-0.951-0.115-1.918-0.181-2.9-0.181   c-13.255,0-24,10.745-24,24c0,6.861,2.884,13.045,7.5,17.419c0.951,0.115,1.918,0.181,2.9,0.181   C253.255,408.045,264,397.3,264,384.045z" fill="#ffd042"/><path d="M229.6,390.445c0-13.255,10.745-24,24-24c0.982,0,1.948,0.066,2.9,0.181   c-0.267-0.253-0.54-0.5-0.819-0.741c-0.003-0.003-0.006-0.005-0.009-0.008c-0.274-0.237-0.554-0.467-0.838-0.691   c-0.01-0.008-0.021-0.016-0.031-0.025c-0.278-0.218-0.561-0.43-0.848-0.636c-0.02-0.014-0.039-0.028-0.059-0.042   c-0.28-0.199-0.563-0.392-0.852-0.579c-0.03-0.02-0.061-0.039-0.092-0.059c-0.279-0.18-0.562-0.354-0.849-0.522   c-0.043-0.025-0.086-0.049-0.129-0.074c-0.277-0.16-0.557-0.315-0.841-0.464c-0.057-0.03-0.115-0.059-0.173-0.088   c-0.273-0.141-0.548-0.277-0.827-0.407c-0.072-0.034-0.146-0.066-0.219-0.099c-0.267-0.122-0.536-0.24-0.808-0.352   c-0.09-0.037-0.182-0.071-0.272-0.107c-0.259-0.103-0.519-0.203-0.782-0.297c-0.109-0.039-0.219-0.074-0.329-0.111   c-0.249-0.085-0.499-0.168-0.751-0.245c-0.129-0.039-0.261-0.074-0.391-0.111c-0.237-0.068-0.475-0.135-0.715-0.196   c-0.15-0.038-0.303-0.07-0.455-0.105c-0.224-0.052-0.448-0.105-0.675-0.15c-0.175-0.035-0.353-0.063-0.53-0.095   c-0.207-0.037-0.413-0.076-0.622-0.107c-0.204-0.031-0.411-0.053-0.617-0.078c-0.186-0.023-0.371-0.05-0.559-0.069   c-0.249-0.025-0.5-0.04-0.751-0.057c-0.148-0.01-0.294-0.025-0.442-0.032c-0.402-0.02-0.806-0.031-1.213-0.031   c-13.255,0-24,10.745-24,24c0,0.723,0.038,1.436,0.1,2.142c0.006,0.064,0.008,0.128,0.015,0.191   c0.065,0.672,0.162,1.333,0.281,1.988c0.017,0.091,0.031,0.182,0.049,0.273c0.124,0.638,0.275,1.266,0.448,1.884   c0.027,0.096,0.054,0.192,0.082,0.288c0.181,0.615,0.384,1.22,0.612,1.813c0.033,0.086,0.068,0.172,0.102,0.258   c0.239,0.601,0.498,1.192,0.782,1.769c0.03,0.06,0.061,0.119,0.091,0.179c0.302,0.598,0.624,1.185,0.973,1.753   c0.01,0.016,0.02,0.031,0.03,0.047c0.737,1.194,1.576,2.318,2.504,3.361c0.013,0.014,0.024,0.028,0.037,0.042   c0.456,0.51,0.935,0.998,1.432,1.467c0.026,0.024,0.051,0.049,0.077,0.073c0.496,0.464,1.012,0.906,1.546,1.326   c0.027,0.021,0.054,0.042,0.081,0.063c0.542,0.423,1.102,0.825,1.68,1.201c0.014,0.009,0.029,0.018,0.043,0.028   c2.987,1.935,6.431,3.226,10.135,3.672c0,0,0,0,0,0h0C232.484,403.49,229.6,397.306,229.6,390.445z" fill="#dbb246"/></g></defs><g fi:class="KUsePattern"><pattern id="pattern_L1_51" width="350" height="350" patternUnits="userSpaceOnUse"><use xlink:href="#L1_51" x="-350" y="-350"/><use xlink:href="#L1_51" x="0" y="-350"/><use xlink:href="#L1_51" x="350" y="-350"/><use xlink:href="#L1_51" x="-350" y="0"/><use xlink:href="#L1_51" x="0" y="0"/><use xlink:href="#L1_51" x="350" y="0"/><use xlink:href="#L1_51" x="-350" y="350"/><use xlink:href="#L1_51" x="0" y="350"/><use xlink:href="#L1_51" x="350" y="350"/></pattern><rect x="0" y="0" width="100%" height="100%" fill="url(#pattern_L1_51)"/></g><g fi:class="KUsePattern"><pattern id="pattern_L1_52" width="350" height="350" patternUnits="userSpaceOnUse"><use xlink:href="#L1_52" x="-350" y="-350"/><use xlink:href="#L1_52" x="0" y="-350"/><use xlink:href="#L1_52" x="350" y="-350"/><use xlink:href="#L1_52" x="-350" y="0"/><use xlink:href="#L1_52" x="0" y="0"/><use xlink:href="#L1_52" x="350" y="0"/><use xlink:href="#L1_52" x="-350" y="350"/><use xlink:href="#L1_52" x="0" y="350"/><use xlink:href="#L1_52" x="350" y="350"/></pattern><rect x="0" y="0" width="100%" height="100%" fill="url(#pattern_L1_52)"/></g><g fi:class="KUsePattern"><pattern id="pattern_L1_53" width="350" height="350" patternUnits="userSpaceOnUse"><use xlink:href="#L1_53" x="-350" y="-350"/><use xlink:href="#L1_53" x="0" y="-350"/><use xlink:href="#L1_53" x="350" y="-350"/><use xlink:href="#L1_53" x="-350" y="0"/><use xlink:href="#L1_53" x="0" y="0"/><use xlink:href="#L1_53" x="350" y="0"/><use xlink:href="#L1_53" x="-350" y="350"/><use xlink:href="#L1_53" x="0" y="350"/><use xlink:href="#L1_53" x="350" y="350"/></pattern><rect x="0" y="0" width="100%" height="100%" fill="url(#pattern_L1_53)"/></g><g fi:class="KUsePattern"><pattern id="pattern_L1_54" width="350" height="350" patternUnits="userSpaceOnUse"><use xlink:href="#L1_54" x="-350" y="-350"/><use xlink:href="#L1_54" x="0" y="-350"/><use xlink:href="#L1_54" x="350" y="-350"/><use xlink:href="#L1_54" x="-350" y="0"/><use xlink:href="#L1_54" x="0" y="0"/><use xlink:href="#L1_54" x="350" y="0"/><use xlink:href="#L1_54" x="-350" y="350"/><use xlink:href="#L1_54" x="0" y="350"/><use xlink:href="#L1_54" x="350" y="350"/></pattern><rect x="0" y="0" width="100%" height="100%" fill="url(#pattern_L1_54)"/></g><g fi:class="KUsePattern"><pattern id="pattern_L1_55" width="350" height="350" patternUnits="userSpaceOnUse"><use xlink:href="#L1_55" x="-350" y="-350"/><use xlink:href="#L1_55" x="0" y="-350"/><use xlink:href="#L1_55" x="350" y="-350"/><use xlink:href="#L1_55" x="-350" y="0"/><use xlink:href="#L1_55" x="0" y="0"/><use xlink:href="#L1_55" x="350" y="0"/><use xlink:href="#L1_55" x="-350" y="350"/><use xlink:href="#L1_55" x="0" y="350"/><use xlink:href="#L1_55" x="350" y="350"/></pattern><rect x="0" y="0" width="100%" height="100%" fill="url(#pattern_L1_55)"/></g><g fi:class="KUsePattern"><pattern id="pattern_L1_56" width="350" height="350" patternUnits="userSpaceOnUse"><use xlink:href="#L1_56" x="-350" y="-350"/><use xlink:href="#L1_56" x="0" y="-350"/><use xlink:href="#L1_56" x="350" y="-350"/><use xlink:href="#L1_56" x="-350" y="0"/><use xlink:href="#L1_56" x="0" y="0"/><use xlink:href="#L1_56" x="350" y="0"/><use xlink:href="#L1_56" x="-350" y="350"/><use xlink:href="#L1_56" x="0" y="350"/><use xlink:href="#L1_56" x="350" y="350"/></pattern><rect x="0" y="0" width="100%" height="100%" fill="url(#pattern_L1_56)"/></g><g fi:class="KUsePattern"><pattern id="pattern_L1_57" width="350" height="350" patternUnits="userSpaceOnUse"><use xlink:href="#L1_57" x="-350" y="-350"/><use xlink:href="#L1_57" x="0" y="-350"/><use xlink:href="#L1_57" x="350" y="-350"/><use xlink:href="#L1_57" x="-350" y="0"/><use xlink:href="#L1_57" x="0" y="0"/><use xlink:href="#L1_57" x="350" y="0"/><use xlink:href="#L1_57" x="-350" y="350"/><use xlink:href="#L1_57" x="0" y="350"/><use xlink:href="#L1_57" x="350" y="350"/></pattern><rect x="0" y="0" width="100%" height="100%" fill="url(#pattern_L1_57)"/></g><g fi:class="KUsePattern"><pattern id="pattern_L1_58" width="350" height="350" patternUnits="userSpaceOnUse"><use xlink:href="#L1_58" x="-350" y="-350"/><use xlink:href="#L1_58" x="0" y="-350"/><use xlink:href="#L1_58" x="350" y="-350"/><use xlink:href="#L1_58" x="-350" y="0"/><use xlink:href="#L1_58" x="0" y="0"/><use xlink:href="#L1_58" x="350" y="0"/><use xlink:href="#L1_58" x="-350" y="350"/><use xlink:href="#L1_58" x="0" y="350"/><use xlink:href="#L1_58" x="350" y="350"/></pattern><rect x="0" y="0" width="100%" height="100%" fill="url(#pattern_L1_58)"/></g><g fi:class="KUsePattern"><pattern id="pattern_L1_59" width="350" height="350" patternUnits="userSpaceOnUse"><use xlink:href="#L1_59" x="-350" y="-350"/><use xlink:href="#L1_59" x="0" y="-350"/><use xlink:href="#L1_59" x="350" y="-350"/><use xlink:href="#L1_59" x="-350" y="0"/><use xlink:href="#L1_59" x="0" y="0"/><use xlink:href="#L1_59" x="350" y="0"/><use xlink:href="#L1_59" x="-350" y="350"/><use xlink:href="#L1_59" x="0" y="350"/><use xlink:href="#L1_59" x="350" y="350"/></pattern><rect x="0" y="0" width="100%" height="100%" fill="url(#pattern_L1_59)"/></g><g fi:class="KUsePattern"><pattern id="pattern_L1_60" width="350" height="350" patternUnits="userSpaceOnUse"><use xlink:href="#L1_60" x="-350" y="-350"/><use xlink:href="#L1_60" x="0" y="-350"/><use xlink:href="#L1_60" x="350" y="-350"/><use xlink:href="#L1_60" x="-350" y="0"/><use xlink:href="#L1_60" x="0" y="0"/><use xlink:href="#L1_60" x="350" y="0"/><use xlink:href="#L1_60" x="-350" y="350"/><use xlink:href="#L1_60" x="0" y="350"/><use xlink:href="#L1_60" x="350" y="350"/></pattern><rect x="0" y="0" width="100%" height="100%" fill="url(#pattern_L1_60)"/></g></svg>