<?xml version="1.0" encoding="iso-8859-1"?>
<!-- Generator: Adobe Illustrator 21.0.0, SVG Export Plug-In . SVG Version: 6.00 Build 0)  -->
<svg xmlns="http://www.w3.org/2000/svg" xmlns:xlink="http://www.w3.org/1999/xlink" version="1.1" id="Capa_1" x="0px" y="0px" viewBox="0 0 512 512" style="enable-background:new 0 0 512 512;" xml:space="preserve" width="512" height="512">
<g>
	<circle style="fill:#FF4F19;" cx="256" cy="256" r="256"/>
	<path style="fill:#FF0C2F;" d="M509.883,289.036c-57.834-57.838-156.03-156.039-156.03-156.039l-236.232,97.846l133.403,188.692   l80.989,80.989C426.123,471.301,496.971,389.244,509.883,289.036z"/>
	<g>
		<polygon style="fill:#FFA92F;" points="394.379,230.844 261.194,419.535 251.024,419.535 117.621,230.844 133.329,218.968     226.506,351.387 180.608,230.288 198.526,223.491 245.932,348.576 245.932,226.806 265.097,226.806 265.097,350.339     313.205,223.408 331.13,230.198 284.593,352.978 378.888,218.968   "/>
		<polygon style="fill:#FF8A1D;" points="394.379,230.844 261.194,419.535 256,419.535 256,226.806 265.097,226.806     265.097,350.339 313.205,223.408 331.13,230.198 284.593,352.978 378.888,218.968   "/>
		<path style="fill:#67BD00;" d="M394.379,230.844l-16.507,8.336c-8.681-9.077-17.471-13.498-26.159-13.166    c-13.664,0.537-23.796,12.482-23.892,12.604l-7.423-6.062l-6.925,6.624c-8.637-9.033-17.401-13.473-26.032-13.172    c-13.734,0.466-23.949,12.527-24.051,12.648L256,232.588l-0.019-0.013l-6.906,6.605c-8.681-9.077-17.471-13.498-26.166-13.166    c-13.664,0.537-23.789,12.482-23.885,12.604l-7.423-6.062l-6.925,6.624c-8.637-9.033-17.401-13.473-26.038-13.172    c-13.734,0.466-23.943,12.527-24.045,12.648l-16.973-7.813c0-36.962,14.392-71.713,40.526-97.847    c26.14-26.14,60.891-40.533,97.853-40.533s71.713,14.392,97.853,40.533C379.987,159.131,394.379,193.882,394.379,230.844z"/>
		<path style="fill:#5EAD00;" d="M394.379,230.844l-16.507,8.336c-8.681-9.077-17.471-13.498-26.159-13.166    c-13.664,0.537-23.796,12.482-23.892,12.604l-7.423-6.062l-6.925,6.624c-8.637-9.033-17.401-13.473-26.032-13.172    c-13.734,0.466-23.949,12.527-24.051,12.648L256,232.588V92.465c36.962,0,71.713,14.392,97.853,40.533    C379.987,159.131,394.379,193.882,394.379,230.844z"/>
	</g>
</g>















</svg>
