<?xml version="1.0" encoding="iso-8859-1"?>
<!-- Generator: Adobe Illustrator 21.0.0, SVG Export Plug-In . SVG Version: 6.00 Build 0)  -->
<svg xmlns="http://www.w3.org/2000/svg" xmlns:xlink="http://www.w3.org/1999/xlink" version="1.1" id="Capa_1" x="0px" y="0px" viewBox="0 0 512 512" style="enable-background:new 0 0 512 512;" xml:space="preserve" width="512" height="512">
<g>
	<circle style="fill:#67BD00;" cx="256" cy="256" r="256"/>
	<path style="fill:#009100;" d="M498.725,337.566L384.679,223.231l-42.094-42.145l-33.95,16.24l-42-42.31l-21.27,42.539l22,21.943   c-3.724-0.467-23.982-0.044-29.998,1.215l-50.156-50.269l2.868,47.474l15.937,15.891c-10.644,7.037-19.73,16.247-26.613,26.999   l-15.847-16.336l-47.476-2.812l50.753,50.434c-1.119,5.688-1.405,25.934-0.824,30.068l-22.75-23l-42.514,21.319l15.999,15.234   L74.5,356.984l153.484,153.484C237.186,511.47,246.531,512,256,512C368.866,512,464.666,438.957,498.725,337.566z"/>
	<g>
		<path style="fill:#FFA92F;" d="M340.583,342.897c4.129-10.534,6.295-21.863,6.295-33.23c0-50.111-40.767-90.878-90.878-90.878    s-90.878,40.767-90.878,90.878c0,11.367,2.165,22.696,6.295,33.23H340.583z"/>
		<rect x="245.365" y="155.016" style="fill:#FFE63F;" width="21.27" height="42.539"/>
		
			<rect x="301.465" y="183.546" transform="matrix(0.5003 -0.8658 0.8658 0.5003 -6.8684 376.4599)" style="fill:#FFCE00;" width="42.539" height="21.269"/>
		
			<rect x="350.292" y="232.43" transform="matrix(0.8664 -0.4993 0.4993 0.8664 -71.734 218.0101)" style="fill:#FFCE00;" width="42.539" height="21.27"/>
		
			<rect x="378.744" y="288.551" transform="matrix(0.0012 -1 1 0.0012 79.1022 698.8367)" style="fill:#FFCE00;" width="21.27" height="42.539"/>
		
			<rect x="178.011" y="172.911" transform="matrix(0.8658 -0.5003 0.5003 0.8658 -71.846 120.4422)" style="fill:#FFE63F;" width="21.269" height="42.539"/>
		
			<rect x="129.185" y="221.796" transform="matrix(0.4993 -0.8664 0.8664 0.4993 -140.5914 242.8412)" style="fill:#FFE63F;" width="21.269" height="42.539"/>
		
			<rect x="100.732" y="299.186" transform="matrix(1 -0.0012 0.0012 1 -0.3634 0.1434)" style="fill:#FFE63F;" width="42.539" height="21.27"/>
		<path style="fill:#FF8A1D;" d="M340.583,342.897c4.129-10.534,6.295-21.863,6.295-33.23c0-50.111-40.767-90.878-90.878-90.878    v124.108H340.583z"/>
		<rect x="256" y="155.016" style="fill:#FFCE00;" width="10.635" height="42.539"/>
		<rect x="74.5" y="335.715" style="fill:#E57500;" width="363" height="21.27"/>
		<rect x="256" y="335.715" style="fill:#994C00;" width="181.5" height="21.27"/>
	</g>
</g>















</svg>
